<svg width="137" height="42" viewBox="0 0 137 42" fill="none" xmlns="http://www.w3.org/2000/svg">
<path d="M0 20.3735C2.66256 18.9579 10.6165 12.2509 21.4353 13.1946V41.3368H9.94246L9.20098 27.6533C9.50431 22.9686 3.21304 26.6085 0 28.9677V20.3735Z" fill="#1283FB"/>
<path d="M42.8706 20.3638C40.208 18.9482 32.2541 12.2505 21.4353 13.1942V41.3272H32.9281L33.6696 27.6436C33.3663 22.9589 39.6576 26.5988 42.8706 28.9581V20.3638Z" fill="#2ADAFF"/>
<circle cx="15.1666" cy="5.84676" r="5.79696" fill="#1283FB"/>
<circle cx="27.7716" cy="5.84676" r="5.79696" fill="#2ADAFF"/>
<path d="M66.512 19.4749L66.3798 23.2143C66.0776 23.3213 65.7502 23.4188 65.3977 23.507C65.0515 23.5888 64.6989 23.6581 64.3401 23.7147C63.9813 23.7777 63.6256 23.8249 63.2731 23.8564C62.9269 23.8878 62.6026 23.9036 62.3005 23.9036C61.3373 23.9036 60.4686 23.7399 59.6943 23.4125C58.9263 23.0852 58.2716 22.6194 57.7302 22.015C57.1951 21.4044 56.7827 20.6647 56.4932 19.796C56.2099 18.9272 56.0682 17.9483 56.0682 16.8592C56.0682 15.745 56.2193 14.7378 56.5215 13.8376C56.8237 12.9373 57.2549 12.1693 57.8152 11.5335C58.3754 10.8914 59.0522 10.4004 59.8454 10.0604C60.6448 9.7142 61.5356 9.54108 62.5177 9.54108C62.7947 9.54108 63.0874 9.55682 63.3958 9.5883C63.7043 9.61348 64.0159 9.6544 64.3307 9.71105C64.6517 9.76142 64.9665 9.82437 65.275 9.89991C65.5897 9.97545 65.8919 10.0604 66.1815 10.1549L66.2948 13.6015H65.6338C65.5771 12.9153 65.4512 12.3582 65.2561 11.9301C65.0672 11.4957 64.828 11.1589 64.5384 10.9197C64.2488 10.6805 63.9215 10.5168 63.5564 10.4287C63.1912 10.3406 62.8041 10.2965 62.3949 10.2965C61.9794 10.2965 61.586 10.3343 61.2146 10.4098C60.8431 10.4854 60.4969 10.6176 60.1759 10.8064C59.8611 10.9953 59.5747 11.2471 59.3166 11.5618C59.0647 11.8766 58.8507 12.2763 58.6744 12.7611C58.4982 13.2458 58.3597 13.8218 58.259 14.4891C58.1645 15.1501 58.1173 15.9213 58.1173 16.8026C58.1173 17.6776 58.1645 18.4425 58.259 19.0972C58.3534 19.7456 58.4856 20.3059 58.6556 20.778C58.8318 21.2501 59.0427 21.6405 59.2882 21.9489C59.54 22.2511 59.817 22.4935 60.1192 22.676C60.4277 22.8523 60.7613 22.975 61.1201 23.0443C61.479 23.1135 61.8567 23.1482 62.2533 23.1482C62.7317 23.1482 63.1724 23.0946 63.5753 22.9876C63.9844 22.8743 64.3433 22.6792 64.6517 22.4022C64.9665 22.1252 65.2246 21.7506 65.426 21.2785C65.6338 20.8063 65.7754 20.2051 65.851 19.4749H66.512ZM70.3457 22.8271V10.6176H68.4572V9.86214H74.0756V10.6176H72.1871V16.0849H78.5043V10.6176H76.6158V9.86214H82.2342V10.6176H80.3457V22.8271H82.2342V23.5825H76.6158V22.8271H78.5043V16.8592H72.1871V22.8271H74.0756V23.5825H68.4572V22.8271H70.3457ZM87.0784 22.8271V23.5825H82.4797V22.8271H84.2739L89.1841 9.7205H89.9301L94.5382 22.8271H96.4079V23.5825H90.6005V22.8271H92.5646L91.1482 18.795H86.6912L85.1898 22.8271H87.0784ZM88.9764 12.7044L86.9839 18.0302H90.8838L89.0141 12.7044H88.9764ZM98.7308 22.8271V10.6176H96.8422V9.86214H102.461V10.6176H100.572V16.0849H106.889V10.6176H105.001V9.86214H110.619V10.6176H108.731V22.8271H110.619V23.5825H105.001V22.8271H106.889V16.8592H100.572V22.8271H102.461V23.5825H96.8422V22.8271H98.7308ZM115.586 16.0849H116.823C117.245 16.0849 117.597 16.0692 117.881 16.0377C118.164 16.0063 118.391 15.9181 118.561 15.7733C118.737 15.6222 118.869 15.3925 118.957 15.084C119.045 14.7692 119.108 14.3286 119.146 13.762H119.817V19.3521H119.146C119.115 18.7793 119.061 18.3292 118.986 18.0018C118.91 17.6682 118.787 17.4164 118.617 17.2464C118.447 17.0764 118.218 16.9694 117.928 16.9253C117.645 16.8813 117.276 16.8592 116.823 16.8592H115.586V22.8271H118.089C118.58 22.8271 119.011 22.8082 119.382 22.7704C119.754 22.7327 120.078 22.6634 120.355 22.5627C120.632 22.462 120.868 22.3203 121.063 22.1378C121.264 21.9552 121.438 21.7191 121.582 21.4296C121.727 21.14 121.85 20.7875 121.951 20.372C122.051 19.9565 122.146 19.4655 122.234 18.8989H122.895L122.706 23.5825H111.856V22.8271H113.745V10.6176H111.856V9.86214H122.47L122.659 13.6487H121.998C121.903 13.0192 121.787 12.5093 121.648 12.119C121.51 11.7224 121.315 11.4139 121.063 11.1936C120.817 10.9669 120.493 10.8159 120.09 10.7403C119.694 10.6585 119.19 10.6176 118.58 10.6176H115.586V16.0849ZM130.742 22.8271C131.233 22.8271 131.664 22.8082 132.036 22.7704C132.407 22.7327 132.731 22.6634 133.008 22.5627C133.291 22.4557 133.534 22.3109 133.735 22.1283C133.937 21.9395 134.11 21.6971 134.255 21.4012C134.399 21.1054 134.522 20.7465 134.623 20.3248C134.73 19.8967 134.824 19.3899 134.906 18.8045H135.567L135.359 23.5825H124.793V22.8271H126.681V10.6176H124.793V9.86214H130.411V10.6176H128.523V22.8271H130.742Z" fill="#1283FB"/>
<path d="M74.6713 27.9368V28.5363H73.4787V32.417H72.7439V28.5363H71.5449V27.9368H74.6713ZM77.2527 28.8071C77.5235 28.8071 77.7641 28.8651 77.9747 28.9811C78.1896 29.0972 78.3572 29.2691 78.4775 29.4968C78.6022 29.7246 78.6645 29.9996 78.6645 30.322V32.417H77.936V30.4315C77.936 30.1135 77.8565 29.8707 77.6975 29.7031C77.5385 29.5312 77.3215 29.4453 77.0465 29.4453C76.7714 29.4453 76.5522 29.5312 76.3889 29.7031C76.2299 29.8707 76.1504 30.1135 76.1504 30.4315V32.417H75.4156V27.6467H76.1504V29.2777C76.2751 29.1272 76.4319 29.0112 76.621 28.9296C76.8144 28.8479 77.025 28.8071 77.2527 28.8071ZM82.8572 30.554C82.8572 30.6872 82.8486 30.8076 82.8314 30.915H80.1176C80.139 31.1986 80.2443 31.4264 80.4334 31.5983C80.6225 31.7702 80.8546 31.8562 81.1296 31.8562C81.525 31.8562 81.8043 31.6907 81.9676 31.3598H82.7605C82.6531 31.6864 82.4576 31.955 82.1739 32.1656C81.8946 32.3719 81.5465 32.475 81.1296 32.475C80.7901 32.475 80.485 32.3998 80.2143 32.2494C79.9478 32.0947 79.7372 31.8798 79.5825 31.6048C79.4321 31.3254 79.3569 31.0031 79.3569 30.6378C79.3569 30.2725 79.43 29.9524 79.5761 29.6773C79.7265 29.398 79.9349 29.1831 80.2014 29.0327C80.4721 28.8823 80.7815 28.8071 81.1296 28.8071C81.4648 28.8071 81.7635 28.8801 82.0257 29.0262C82.2878 29.1724 82.4919 29.3786 82.6381 29.6451C82.7842 29.9072 82.8572 30.2102 82.8572 30.554ZM82.0901 30.322C82.0858 30.0512 81.9891 29.8342 81.8 29.6709C81.6109 29.5076 81.3767 29.4259 81.0974 29.4259C80.8438 29.4259 80.6268 29.5076 80.4463 29.6709C80.2658 29.8299 80.1584 30.0469 80.124 30.322H82.0901Z" fill="#062E58"/>
<path d="M86.1863 28.5299V29.8449H87.7334V30.4444H86.1863V31.8175H87.9268V32.417H85.4515V27.9304H87.9268V28.5299H86.1863ZM91.5587 29.774V30.3929H88.9093V29.774H91.5587ZM93.3377 31.8239H94.8525V32.417H92.6028V27.9368H93.3377V31.8239ZM98.7225 30.554C98.7225 30.6872 98.7139 30.8076 98.6967 30.915H95.9828C96.0043 31.1986 96.1096 31.4264 96.2987 31.5983C96.4878 31.7702 96.7198 31.8562 96.9949 31.8562C97.3902 31.8562 97.6696 31.6907 97.8329 31.3598H98.6258C98.5183 31.6864 98.3228 31.955 98.0392 32.1656C97.7598 32.3719 97.4117 32.475 96.9949 32.475C96.6554 32.475 96.3502 32.3998 96.0795 32.2494C95.8131 32.0947 95.6025 31.8798 95.4478 31.6048C95.2974 31.3254 95.2221 31.0031 95.2221 30.6378C95.2221 30.2725 95.2952 29.9524 95.4413 29.6773C95.5917 29.398 95.8002 29.1831 96.0666 29.0327C96.3374 28.8823 96.6468 28.8071 96.9949 28.8071C97.3301 28.8071 97.6288 28.8801 97.8909 29.0262C98.1531 29.1724 98.3572 29.3786 98.5033 29.6451C98.6494 29.9072 98.7225 30.2102 98.7225 30.554ZM97.9554 30.322C97.9511 30.0512 97.8544 29.8342 97.6653 29.6709C97.4762 29.5076 97.242 29.4259 96.9626 29.4259C96.7091 29.4259 96.4921 29.5076 96.3116 29.6709C96.1311 29.8299 96.0236 30.0469 95.9893 30.322H97.9554ZM99.2007 30.6249C99.2007 30.2682 99.2738 29.9524 99.4199 29.6773C99.5703 29.4023 99.7723 29.1896 100.026 29.0391C100.284 28.8844 100.567 28.8071 100.877 28.8071C101.156 28.8071 101.399 28.8629 101.605 28.9747C101.816 29.0821 101.983 29.2175 102.108 29.3808V28.8651H102.849V32.417H102.108V31.8884C101.983 32.056 101.814 32.1957 101.599 32.3074C101.384 32.4191 101.139 32.475 100.864 32.475C100.559 32.475 100.279 32.3977 100.026 32.2429C99.7723 32.0839 99.5703 31.8648 99.4199 31.5854C99.2738 31.3018 99.2007 30.9816 99.2007 30.6249ZM102.108 30.6378C102.108 30.3929 102.056 30.1801 101.953 29.9996C101.854 29.8191 101.723 29.6816 101.56 29.5871C101.397 29.4925 101.221 29.4453 101.031 29.4453C100.842 29.4453 100.666 29.4925 100.503 29.5871C100.34 29.6773 100.206 29.8127 100.103 29.9932C100.004 30.1694 99.9549 30.38 99.9549 30.6249C99.9549 30.8699 100.004 31.0848 100.103 31.2696C100.206 31.4543 100.34 31.5962 100.503 31.695C100.67 31.7896 100.847 31.8368 101.031 31.8368C101.221 31.8368 101.397 31.7896 101.56 31.695C101.723 31.6005 101.854 31.4629 101.953 31.2824C102.056 31.0977 102.108 30.8828 102.108 30.6378ZM104.549 29.3808C104.657 29.2003 104.799 29.0606 104.975 28.9618C105.155 28.8586 105.368 28.8071 105.613 28.8071V29.5677H105.426C105.138 29.5677 104.919 29.6408 104.769 29.7869C104.622 29.933 104.549 30.1866 104.549 30.5476V32.417H103.815V28.8651H104.549V29.3808ZM108.081 28.8071C108.36 28.8071 108.609 28.8651 108.828 28.9811C109.052 29.0972 109.226 29.2691 109.351 29.4968C109.475 29.7246 109.537 29.9996 109.537 30.322V32.417H108.809V30.4315C108.809 30.1135 108.73 29.8707 108.571 29.7031C108.412 29.5312 108.195 29.4453 107.919 29.4453C107.644 29.4453 107.425 29.5312 107.262 29.7031C107.103 29.8707 107.023 30.1135 107.023 30.4315V32.417H106.289V28.8651H107.023V29.2712C107.144 29.1251 107.296 29.0112 107.481 28.9296C107.67 28.8479 107.87 28.8071 108.081 28.8071ZM110.849 28.3945C110.716 28.3945 110.604 28.3494 110.514 28.2591C110.423 28.1689 110.378 28.0572 110.378 27.9239C110.378 27.7907 110.423 27.679 110.514 27.5887C110.604 27.4985 110.716 27.4534 110.849 27.4534C110.978 27.4534 111.087 27.4985 111.178 27.5887C111.268 27.679 111.313 27.7907 111.313 27.9239C111.313 28.0572 111.268 28.1689 111.178 28.2591C111.087 28.3494 110.978 28.3945 110.849 28.3945ZM111.21 28.8651V32.417H110.475V28.8651H111.21ZM113.967 28.8071C114.246 28.8071 114.495 28.8651 114.714 28.9811C114.938 29.0972 115.112 29.2691 115.237 29.4968C115.361 29.7246 115.423 29.9996 115.423 30.322V32.417H114.695V30.4315C114.695 30.1135 114.616 29.8707 114.457 29.7031C114.298 29.5312 114.081 29.4453 113.805 29.4453C113.53 29.4453 113.311 29.5312 113.148 29.7031C112.989 29.8707 112.909 30.1135 112.909 30.4315V32.417H112.175V28.8651H112.909V29.2712C113.03 29.1251 113.182 29.0112 113.367 28.9296C113.556 28.8479 113.756 28.8071 113.967 28.8071ZM117.792 28.8071C118.067 28.8071 118.31 28.8629 118.52 28.9747C118.735 29.0821 118.903 29.2175 119.023 29.3808V28.8651H119.764V32.475C119.764 32.8016 119.696 33.0917 119.558 33.3453C119.421 33.6031 119.221 33.8051 118.959 33.9512C118.701 34.0973 118.391 34.1704 118.03 34.1704C117.549 34.1704 117.149 34.0565 116.831 33.8287C116.513 33.6053 116.333 33.3001 116.29 32.9134H117.018C117.074 33.0981 117.192 33.2464 117.373 33.3581C117.558 33.4742 117.777 33.5322 118.03 33.5322C118.327 33.5322 118.565 33.442 118.746 33.2615C118.931 33.081 119.023 32.8188 119.023 32.475V31.882C118.899 32.0496 118.729 32.1914 118.514 32.3074C118.303 32.4191 118.063 32.475 117.792 32.475C117.483 32.475 117.199 32.3977 116.941 32.2429C116.687 32.0839 116.485 31.8648 116.335 31.5854C116.189 31.3018 116.116 30.9816 116.116 30.6249C116.116 30.2682 116.189 29.9524 116.335 29.6773C116.485 29.4023 116.687 29.1896 116.941 29.0391C117.199 28.8844 117.483 28.8071 117.792 28.8071ZM119.023 30.6378C119.023 30.3929 118.972 30.1801 118.868 29.9996C118.77 29.8191 118.639 29.6816 118.475 29.5871C118.312 29.4925 118.136 29.4453 117.947 29.4453C117.758 29.4453 117.581 29.4925 117.418 29.5871C117.255 29.6773 117.122 29.8127 117.018 29.9932C116.92 30.1694 116.87 30.38 116.87 30.6249C116.87 30.8699 116.92 31.0848 117.018 31.2696C117.122 31.4543 117.255 31.5962 117.418 31.695C117.586 31.7896 117.762 31.8368 117.947 31.8368C118.136 31.8368 118.312 31.7896 118.475 31.695C118.639 31.6005 118.77 31.4629 118.868 31.2824C118.972 31.0977 119.023 30.8828 119.023 30.6378Z" fill="#1283FB"/>
</svg>
