<svg width="247" height="77" viewBox="0 0 247 77" fill="none" xmlns="http://www.w3.org/2000/svg">
<path d="M35.54 30.1308L35.1391 41.4715C34.2226 41.7961 33.2299 42.092 32.1607 42.3593C31.1106 42.6075 30.0415 42.8175 28.9532 42.9893C27.865 43.1802 26.7863 43.3234 25.7171 43.4189C24.667 43.5143 23.6838 43.5621 22.7674 43.5621C19.8463 43.5621 17.2116 43.0657 14.8632 42.0729C12.534 41.0801 10.5484 39.6673 8.90648 37.8344C7.28365 35.9825 6.03311 33.7392 5.15488 31.1045C4.29573 28.4697 3.86616 25.5009 3.86616 22.198C3.86616 18.8187 4.32437 15.7639 5.24079 13.0338C6.15721 10.3036 7.46502 7.97434 9.16422 6.04604C10.8634 4.09864 12.9158 2.60945 15.3214 1.57848C17.7461 0.528411 20.4477 0.00337704 23.426 0.00337704C24.2661 0.00337704 25.1539 0.0511074 26.0894 0.146568C27.0249 0.222937 27.97 0.347035 28.9246 0.518865C29.8983 0.671602 30.8529 0.862523 31.7884 1.09163C32.743 1.32073 33.6594 1.57848 34.5377 1.86486L34.8813 12.3178H32.8767C32.7048 10.2368 32.323 8.54711 31.7311 7.24884C31.1584 5.93148 30.4329 4.91006 29.5546 4.18455C28.6764 3.45905 27.6836 2.96266 26.5762 2.69537C25.4689 2.42808 24.2947 2.29443 23.0538 2.29443C21.7937 2.29443 20.6004 2.40899 19.474 2.63809C18.3475 2.8672 17.2975 3.26813 16.3238 3.8409C15.3692 4.41366 14.5005 5.17734 13.7177 6.13195C12.954 7.08656 12.3049 8.29891 11.7703 9.769C11.2357 11.2391 10.8157 12.986 10.5102 15.0098C10.2238 17.0145 10.0806 19.3533 10.0806 22.0262C10.0806 24.68 10.2238 26.9997 10.5102 28.9852C10.7966 30.9517 11.1975 32.6509 11.713 34.0828C12.2476 35.5147 12.8872 36.6985 13.6318 37.634C14.3955 38.5504 15.2355 39.2854 16.1519 39.8391C17.0875 40.3737 18.0993 40.746 19.1876 40.956C20.2758 41.166 21.4214 41.271 22.6242 41.271C24.0752 41.271 25.4116 41.1087 26.6335 40.7842C27.8745 40.4405 28.9628 39.8487 29.8983 39.0086C30.8529 38.1686 31.6357 37.0326 32.2466 35.6007C32.8767 34.1687 33.3062 32.3454 33.5353 30.1308H35.54ZM47.1671 40.2973V3.26813H41.4395V0.977076H58.4792V3.26813H52.7516V19.8496H71.9105V3.26813H66.1829V0.977076H83.2226V3.26813H77.495V40.2973H83.2226V42.5884H66.1829V40.2973H71.9105V22.198H52.7516V40.2973H58.4792V42.5884H41.4395V40.2973H47.1671ZM97.914 40.2973V42.5884H83.9672V40.2973H89.4085L104.3 0.547503H106.563L120.538 40.2973H126.209V42.5884H108.596V40.2973H114.553L110.257 28.0688H96.7398L92.1864 40.2973H97.914ZM103.67 9.59717L97.6276 25.7491H109.455L103.785 9.59717H103.67ZM133.254 40.2973V3.26813H127.526V0.977076H144.566V3.26813H138.838V19.8496H157.997V3.26813H152.269V0.977076H169.309V3.26813H163.581V40.2973H169.309V42.5884H152.269V40.2973H157.997V22.198H138.838V40.2973H144.566V42.5884H127.526V40.2973H133.254ZM184.373 19.8496H188.124C189.404 19.8496 190.473 19.8019 191.332 19.7065C192.191 19.611 192.878 19.3437 193.394 18.9046C193.928 18.4464 194.329 17.7495 194.597 16.814C194.864 15.8594 195.055 14.5229 195.169 12.8047H197.203V29.7585H195.169C195.074 28.0211 194.912 26.656 194.682 25.6632C194.453 24.6513 194.081 23.8876 193.566 23.3721C193.05 22.8567 192.353 22.5321 191.475 22.3984C190.616 22.2648 189.499 22.198 188.124 22.198H184.373V40.2973H191.962C193.451 40.2973 194.759 40.24 195.885 40.1255C197.012 40.0109 197.995 39.8009 198.835 39.4955C199.675 39.19 200.391 38.7604 200.983 38.2067C201.594 37.6531 202.119 36.9371 202.558 36.0589C202.997 35.1806 203.369 34.1115 203.675 32.8514C203.98 31.5913 204.267 30.1021 204.534 28.3838H206.539L205.966 42.5884H173.061V40.2973H178.788V3.26813H173.061V0.977076H205.25L205.823 12.461H203.818C203.532 10.5518 203.178 9.00532 202.758 7.82161C202.338 6.6188 201.747 5.68329 200.983 5.01506C200.238 4.32775 199.255 3.86953 198.033 3.64043C196.83 3.39223 195.303 3.26813 193.451 3.26813H184.373V19.8496ZM230.337 40.2973C231.826 40.2973 233.134 40.24 234.26 40.1255C235.387 40.0109 236.37 39.8009 237.21 39.4955C238.069 39.1709 238.804 38.7318 239.415 38.1781C240.026 37.6053 240.551 36.8703 240.99 35.973C241.43 35.0756 241.802 33.9874 242.107 32.7082C242.432 31.4099 242.718 29.873 242.966 28.0975H244.971L244.341 42.5884H212.295V40.2973H218.023V3.26813H212.295V0.977076H229.335V3.26813H223.607V40.2973H230.337Z" fill="white"/>
<path d="M60.2444 57.6635V59.4817H56.6276V71.251H54.3988V59.4817H50.7625V57.6635H60.2444ZM68.0734 60.3028C68.8945 60.3028 69.6244 60.4787 70.263 60.8306C70.9147 61.1825 71.423 61.7039 71.7879 62.3947C72.1659 63.0854 72.3549 63.9196 72.3549 64.8971V71.251H70.1457V65.2295C70.1457 64.265 69.9046 63.5286 69.4224 63.0203C68.9401 62.4989 68.2819 62.2383 67.4478 62.2383C66.6136 62.2383 65.9489 62.4989 65.4536 63.0203C64.9714 63.5286 64.7303 64.265 64.7303 65.2295V71.251H62.5015V56.7837H64.7303V61.73C65.1082 61.2738 65.584 60.9219 66.1574 60.6742C66.744 60.4266 67.3826 60.3028 68.0734 60.3028ZM85.0707 65.6009C85.0707 66.005 85.0447 66.3699 84.9925 66.6957H76.7618C76.827 67.556 77.1463 68.2467 77.7198 68.7681C78.2933 69.2894 78.9971 69.5501 79.8312 69.5501C81.0303 69.5501 81.8775 69.0483 82.3728 68.0447H84.7775C84.4516 69.0353 83.8586 69.8499 82.9984 70.4885C82.1512 71.1141 81.0955 71.4269 79.8312 71.4269C78.8016 71.4269 77.8762 71.1988 77.0551 70.7427C76.247 70.2735 75.6084 69.6218 75.1391 68.7876C74.683 67.9405 74.4549 66.9629 74.4549 65.8551C74.4549 64.7472 74.6765 63.7762 75.1196 62.9421C75.5758 62.0949 76.2079 61.4432 77.016 60.987C77.8371 60.5309 78.7755 60.3028 79.8312 60.3028C80.8478 60.3028 81.7537 60.5244 82.5487 60.9675C83.3438 61.4106 83.9629 62.0362 84.406 62.8443C84.8492 63.6394 85.0707 64.5582 85.0707 65.6009ZM82.7442 64.8971C82.7312 64.076 82.4379 63.4178 81.8645 62.9225C81.291 62.4273 80.5807 62.1796 79.7335 62.1796C78.9645 62.1796 78.3063 62.4273 77.7589 62.9225C77.2115 63.4048 76.8856 64.063 76.7814 64.8971H82.7442Z" fill="#062E58"/>
<path d="M102.418 65.6009C102.418 66.005 102.392 66.3699 102.34 66.6957H94.1088C94.174 67.556 94.4933 68.2467 95.0668 68.7681C95.6403 69.2894 96.3441 69.5501 97.1782 69.5501C98.3773 69.5501 99.2245 69.0483 99.7198 68.0447H102.124C101.799 69.0353 101.206 69.8499 100.345 70.4885C99.4982 71.1141 98.4425 71.4269 97.1782 71.4269C96.1486 71.4269 95.2232 71.1988 94.4021 70.7427C93.594 70.2735 92.9553 69.6218 92.4861 68.7876C92.03 67.9405 91.8019 66.9629 91.8019 65.8551C91.8019 64.7472 92.0234 63.7762 92.4666 62.9421C92.9228 62.0949 93.5549 61.4432 94.363 60.987C95.1841 60.5309 96.1225 60.3028 97.1782 60.3028C98.1948 60.3028 99.1007 60.5244 99.8957 60.9675C100.691 61.4106 101.31 62.0362 101.753 62.8443C102.196 63.6394 102.418 64.5582 102.418 65.6009ZM100.091 64.8971C100.078 64.076 99.7849 63.4178 99.2115 62.9225C98.638 62.4273 97.9276 62.1796 97.0805 62.1796C96.3115 62.1796 95.6533 62.4273 95.1059 62.9225C94.5585 63.4048 94.2326 64.063 94.1284 64.8971H100.091ZM112.881 63.2353V65.1122H104.846V63.2353H112.881ZM118.276 56.7837V71.251H116.047V56.7837H118.276ZM131.075 65.6009C131.075 66.005 131.049 66.3699 130.997 66.6957H122.766C122.831 67.556 123.151 68.2467 123.724 68.7681C124.298 69.2894 125.001 69.5501 125.836 69.5501C127.035 69.5501 127.882 69.0483 128.377 68.0447H130.782C130.456 69.0353 129.863 69.8499 129.003 70.4885C128.155 71.1141 127.1 71.4269 125.836 71.4269C124.806 71.4269 123.88 71.1988 123.059 70.7427C122.251 70.2735 121.613 69.6218 121.143 68.7876C120.687 67.9405 120.459 66.9629 120.459 65.8551C120.459 64.7472 120.681 63.7762 121.124 62.9421C121.58 62.0949 122.212 61.4432 123.02 60.987C123.841 60.5309 124.78 60.3028 125.836 60.3028C126.852 60.3028 127.758 60.5244 128.553 60.9675C129.348 61.4106 129.967 62.0362 130.41 62.8443C130.853 63.6394 131.075 64.5582 131.075 65.6009ZM128.749 64.8971C128.735 64.076 128.442 63.4178 127.869 62.9225C127.295 62.4273 126.585 62.1796 125.738 62.1796C124.969 62.1796 124.311 62.4273 123.763 62.9225C123.216 63.4048 122.89 64.063 122.786 64.8971H128.749ZM132.525 65.816C132.525 64.7342 132.747 63.7762 133.19 62.9421C133.646 62.1079 134.259 61.4628 135.028 61.0066C135.81 60.5374 136.67 60.3028 137.608 60.3028C138.456 60.3028 139.192 60.4722 139.818 60.8111C140.456 61.1369 140.965 61.5475 141.343 62.0428V60.4787H143.591V71.251H141.343V69.6478C140.965 70.1562 140.45 70.5797 139.798 70.9186C139.146 71.2575 138.404 71.4269 137.569 71.4269C136.644 71.4269 135.797 71.1923 135.028 70.7231C134.259 70.2409 133.646 69.5762 133.19 68.729C132.747 67.8688 132.525 66.8978 132.525 65.816ZM141.343 65.8551C141.343 65.1122 141.186 64.467 140.873 63.9196C140.574 63.3722 140.176 62.9551 139.681 62.6684C139.186 62.3816 138.651 62.2383 138.078 62.2383C137.504 62.2383 136.97 62.3816 136.475 62.6684C135.979 62.9421 135.575 63.3526 135.262 63.9C134.963 64.4344 134.813 65.0731 134.813 65.816C134.813 66.5589 134.963 67.2106 135.262 67.771C135.575 68.3315 135.979 68.7616 136.475 69.0613C136.983 69.3481 137.517 69.4914 138.078 69.4914C138.651 69.4914 139.186 69.3481 139.681 69.0613C140.176 68.7746 140.574 68.3575 140.873 67.8101C141.186 67.2497 141.343 66.598 141.343 65.8551ZM148.747 62.0428C149.073 61.4954 149.503 61.0718 150.037 60.772C150.585 60.4592 151.23 60.3028 151.973 60.3028V62.6097H151.406C150.533 62.6097 149.868 62.8313 149.412 63.2744C148.969 63.7176 148.747 64.4866 148.747 65.5814V71.251H146.518V60.4787H148.747V62.0428ZM159.456 60.3028C160.304 60.3028 161.06 60.4787 161.724 60.8306C162.402 61.1825 162.93 61.7039 163.308 62.3947C163.686 63.0854 163.875 63.9196 163.875 64.8971V71.251H161.666V65.2295C161.666 64.265 161.425 63.5286 160.942 63.0203C160.46 62.4989 159.802 62.2383 158.968 62.2383C158.134 62.2383 157.469 62.4989 156.974 63.0203C156.491 63.5286 156.25 64.265 156.25 65.2295V71.251H154.021V60.4787H156.25V61.7104C156.615 61.2673 157.078 60.9219 157.638 60.6742C158.212 60.4266 158.818 60.3028 159.456 60.3028ZM167.852 59.0516C167.448 59.0516 167.109 58.9147 166.835 58.641C166.561 58.3673 166.424 58.0284 166.424 57.6244C166.424 57.2203 166.561 56.8815 166.835 56.6078C167.109 56.3341 167.448 56.1972 167.852 56.1972C168.243 56.1972 168.575 56.3341 168.849 56.6078C169.122 56.8815 169.259 57.2203 169.259 57.6244C169.259 58.0284 169.122 58.3673 168.849 58.641C168.575 58.9147 168.243 59.0516 167.852 59.0516ZM168.946 60.4787V71.251H166.718V60.4787H168.946ZM177.308 60.3028C178.155 60.3028 178.911 60.4787 179.575 60.8306C180.253 61.1825 180.781 61.7039 181.159 62.3947C181.537 63.0854 181.726 63.9196 181.726 64.8971V71.251H179.517V65.2295C179.517 64.265 179.276 63.5286 178.793 63.0203C178.311 62.4989 177.653 62.2383 176.819 62.2383C175.985 62.2383 175.32 62.4989 174.825 63.0203C174.342 63.5286 174.101 64.265 174.101 65.2295V71.251H171.873V60.4787H174.101V61.7104C174.466 61.2673 174.929 60.9219 175.489 60.6742C176.063 60.4266 176.669 60.3028 177.308 60.3028ZM188.909 60.3028C189.743 60.3028 190.48 60.4722 191.118 60.8111C191.77 61.1369 192.278 61.5475 192.643 62.0428V60.4787H194.891V71.4269C194.891 72.4175 194.683 73.2972 194.266 74.0662C193.849 74.8482 193.243 75.4608 192.448 75.904C191.666 76.3471 190.727 76.5687 189.632 76.5687C188.173 76.5687 186.961 76.2233 185.996 75.5325C185.032 74.8548 184.484 73.9294 184.354 72.7564H186.563C186.732 73.3168 187.091 73.7665 187.638 74.1053C188.199 74.4572 188.863 74.6332 189.632 74.6332C190.532 74.6332 191.255 74.3595 191.802 73.8121C192.363 73.2647 192.643 72.4696 192.643 71.4269V69.6283C192.265 70.1366 191.75 70.5667 191.099 70.9186C190.46 71.2575 189.73 71.4269 188.909 71.4269C187.971 71.4269 187.11 71.1923 186.328 70.7231C185.559 70.2409 184.947 69.5762 184.491 68.729C184.048 67.8688 183.826 66.8978 183.826 65.816C183.826 64.7342 184.048 63.7762 184.491 62.9421C184.947 62.1079 185.559 61.4628 186.328 61.0066C187.11 60.5374 187.971 60.3028 188.909 60.3028ZM192.643 65.8551C192.643 65.1122 192.487 64.467 192.174 63.9196C191.874 63.3722 191.477 62.9551 190.981 62.6684C190.486 62.3816 189.952 62.2383 189.378 62.2383C188.805 62.2383 188.27 62.3816 187.775 62.6684C187.28 62.9421 186.876 63.3526 186.563 63.9C186.263 64.4344 186.113 65.0731 186.113 65.816C186.113 66.5589 186.263 67.2106 186.563 67.771C186.876 68.3315 187.28 68.7616 187.775 69.0613C188.283 69.3481 188.818 69.4914 189.378 69.4914C189.952 69.4914 190.486 69.3481 190.981 69.0613C191.477 68.7746 191.874 68.3575 192.174 67.8101C192.487 67.2497 192.643 66.598 192.643 65.8551Z" fill="white"/>
</svg>
