<svg width="44" height="51" viewBox="0 0 44 51" fill="none" xmlns="http://www.w3.org/2000/svg">
<path d="M7.25098 14.3082C9.12543 13.3116 14.7251 8.58985 22.3415 9.25422V29.0665H14.2505L13.7285 19.4332C13.9421 16.1351 9.51297 18.6977 7.25098 20.3586V14.3082Z" fill="#1283FB"/>
<path d="M37.4321 14.3007C35.5577 13.3041 29.9581 8.58895 22.3416 9.25332V29.059H30.4326L30.9546 19.4258C30.741 16.1277 35.1701 18.6902 37.4321 20.3511V14.3007Z" fill="#2ADAFF"/>
<circle cx="17.9283" cy="4.08108" r="4.08108" fill="#1283FB"/>
<circle cx="26.8023" cy="4.08108" r="4.08108" fill="#2ADAFF"/>
<path d="M6.29991 42.2903L6.22884 44.3006C6.06639 44.3581 5.89041 44.4105 5.70089 44.4579C5.51475 44.5019 5.32523 44.5391 5.13232 44.5696C4.93941 44.6034 4.7482 44.6288 4.55868 44.6458C4.37254 44.6627 4.19825 44.6711 4.0358 44.6711C3.518 44.6711 3.05096 44.5831 2.63469 44.4072C2.22181 44.2312 1.86984 43.9807 1.57878 43.6558C1.29112 43.3276 1.06944 42.9299 0.913766 42.4629C0.761472 41.9958 0.685325 41.4696 0.685325 40.8841C0.685325 40.2851 0.766548 39.7436 0.928996 39.2596C1.09144 38.7757 1.32327 38.3628 1.62447 38.0209C1.92568 37.6757 2.28949 37.4118 2.71592 37.229C3.14572 37.0429 3.62461 36.9498 4.15256 36.9498C4.30147 36.9498 4.45884 36.9583 4.62467 36.9752C4.7905 36.9887 4.95803 37.0107 5.12724 37.0412C5.29984 37.0683 5.46906 37.1021 5.63489 37.1427C5.80411 37.1833 5.96655 37.229 6.12223 37.2798L6.18315 39.1327H5.8278C5.79734 38.7638 5.72965 38.4643 5.62474 38.2342C5.52321 38.0006 5.3946 37.8196 5.23893 37.691C5.08325 37.5624 4.90726 37.4744 4.71097 37.427C4.51468 37.3796 4.30655 37.3559 4.08656 37.3559C3.8632 37.3559 3.65168 37.3762 3.45201 37.4168C3.25233 37.4575 3.06619 37.5285 2.89359 37.6301C2.72438 37.7316 2.57039 37.867 2.43163 38.0362C2.29626 38.2054 2.18119 38.4203 2.08643 38.6809C1.99167 38.9415 1.91722 39.2511 1.86307 39.6099C1.8123 39.9652 1.78692 40.3798 1.78692 40.8536C1.78692 41.324 1.8123 41.7352 1.86307 42.0872C1.91383 42.4358 1.9849 42.737 2.07628 42.9908C2.17104 43.2446 2.28442 43.4545 2.4164 43.6203C2.55178 43.7828 2.70069 43.913 2.86313 44.0112C3.02897 44.106 3.20833 44.1719 3.40124 44.2092C3.59415 44.2464 3.79721 44.265 4.01042 44.265C4.26763 44.265 4.50453 44.2363 4.72112 44.1787C4.94111 44.1178 5.13401 44.0129 5.29984 43.864C5.46906 43.7151 5.60782 43.5137 5.71611 43.2599C5.8278 43.0061 5.90394 42.6828 5.94456 42.2903H6.29991ZM8.36096 44.0924V37.5285H7.34566V37.1224H10.3662V37.5285H9.35087V40.4678H12.747V37.5285H11.7317V37.1224H14.7522V37.5285H13.7369V44.0924H14.7522V44.4985H11.7317V44.0924H12.747V40.8841H9.35087V44.0924H10.3662V44.4985H7.34566V44.0924H8.36096ZM17.3565 44.0924V44.4985H14.8842V44.0924H15.8488L18.4885 37.0463H18.8896L21.3669 44.0924H22.372V44.4985H19.25V44.0924H20.3059L19.5444 41.9248H17.1483L16.3412 44.0924H17.3565ZM18.3769 38.6504L17.3057 41.5136H19.4023L18.3972 38.6504H18.3769ZM23.6209 44.0924V37.5285H22.6056V37.1224H25.6261V37.5285H24.6108V40.4678H28.0069V37.5285H26.9916V37.1224H30.0121V37.5285H28.9968V44.0924H30.0121V44.4985H26.9916V44.0924H28.0069V40.8841H24.6108V44.0924H25.6261V44.4985H22.6056V44.0924H23.6209ZM32.6824 40.4678H33.3474C33.5741 40.4678 33.7637 40.4594 33.9159 40.4424C34.0682 40.4255 34.1901 40.3781 34.2815 40.3003C34.3762 40.2191 34.4473 40.0955 34.4947 39.9297C34.542 39.7605 34.5759 39.5236 34.5962 39.219H34.9566V42.2243H34.5962C34.5793 41.9163 34.5505 41.6743 34.5099 41.4983C34.4693 41.319 34.4033 41.1836 34.3119 41.0922C34.2205 41.0008 34.097 40.9433 33.9413 40.9196C33.789 40.8959 33.5911 40.8841 33.3474 40.8841H32.6824V44.0924H34.0276C34.2916 44.0924 34.5234 44.0823 34.7231 44.062C34.9228 44.0417 35.0971 44.0044 35.246 43.9503C35.3949 43.8961 35.5218 43.82 35.6267 43.7218C35.735 43.6237 35.8281 43.4968 35.9059 43.3411C35.9838 43.1854 36.0498 42.9959 36.1039 42.7725C36.1581 42.5492 36.2088 42.2852 36.2562 41.9806H36.6116L36.51 44.4985H30.6772V44.0924H31.6925V37.5285H30.6772V37.1224H36.3831L36.4846 39.1581H36.1293C36.0785 38.8196 36.0159 38.5455 35.9415 38.3357C35.867 38.1225 35.7621 37.9566 35.6267 37.8382C35.4947 37.7164 35.3204 37.6351 35.1038 37.5945C34.8906 37.5505 34.6199 37.5285 34.2916 37.5285H32.6824V40.4678ZM40.8301 44.0924C41.0941 44.0924 41.3259 44.0823 41.5256 44.062C41.7253 44.0417 41.8996 44.0044 42.0485 43.9503C42.2008 43.8927 42.3311 43.8149 42.4394 43.7168C42.5477 43.6152 42.6407 43.4849 42.7186 43.3259C42.7964 43.1668 42.8624 42.9739 42.9165 42.7472C42.9741 42.517 43.0248 42.2446 43.0688 41.9298H43.4242L43.3125 44.4985H37.6319V44.0924H38.6472V37.5285H37.6319V37.1224H40.6524V37.5285H39.6371V44.0924H40.8301Z" fill="#1283FB"/>
<path d="M10.3159 46.6891V47.0114H9.67482V49.0977H9.27975V47.0114H8.63516V46.6891H10.3159ZM11.7037 47.157C11.8493 47.157 11.9787 47.1881 12.0919 47.2505C12.2074 47.3129 12.2975 47.4053 12.3622 47.5278C12.4292 47.6502 12.4627 47.7981 12.4627 47.9714V49.0977H12.0711V48.0303C12.0711 47.8593 12.0283 47.7288 11.9429 47.6387C11.8574 47.5462 11.7407 47.5 11.5928 47.5C11.445 47.5 11.3271 47.5462 11.2393 47.6387C11.1539 47.7288 11.1111 47.8593 11.1111 48.0303V49.0977H10.7161V46.5332H11.1111V47.4099C11.1781 47.3291 11.2625 47.2667 11.3641 47.2228C11.4681 47.1789 11.5813 47.157 11.7037 47.157ZM14.7167 48.0961C14.7167 48.1677 14.7121 48.2324 14.7029 48.2902H13.2439C13.2554 48.4427 13.312 48.5651 13.4137 48.6575C13.5153 48.7499 13.6401 48.7962 13.788 48.7962C14.0005 48.7962 14.1507 48.7072 14.2385 48.5293H14.6647C14.607 48.7049 14.5019 48.8493 14.3494 48.9625C14.1992 49.0734 14.0121 49.1288 13.788 49.1288C13.6054 49.1288 13.4414 49.0884 13.2959 49.0076C13.1526 48.9244 13.0394 48.8089 12.9562 48.661C12.8754 48.5108 12.8349 48.3375 12.8349 48.1412C12.8349 47.9448 12.8742 47.7727 12.9528 47.6248C13.0336 47.4746 13.1457 47.3591 13.2889 47.2782C13.4345 47.1974 13.6008 47.157 13.788 47.157C13.9682 47.157 14.1287 47.1962 14.2697 47.2748C14.4106 47.3533 14.5203 47.4642 14.5989 47.6075C14.6774 47.7484 14.7167 47.9113 14.7167 48.0961ZM14.3043 47.9714C14.302 47.8258 14.25 47.7091 14.1484 47.6213C14.0467 47.5335 13.9208 47.4896 13.7706 47.4896C13.6343 47.4896 13.5176 47.5335 13.4206 47.6213C13.3236 47.7068 13.2658 47.8235 13.2473 47.9714H14.3043Z" fill="#062E58"/>
<path d="M17.0552 47.0079V47.7149H17.8869V48.0372H17.0552V48.7754H17.9909V49.0977H16.6601V46.6856H17.9909V47.0079H17.0552ZM19.9434 47.6768V48.0095H18.5191V47.6768H19.9434ZM20.8998 48.7788H21.7142V49.0977H20.5047V46.6891H20.8998V48.7788ZM23.7947 48.0961C23.7947 48.1677 23.7901 48.2324 23.7808 48.2902H22.3218C22.3334 48.4427 22.39 48.5651 22.4917 48.6575C22.5933 48.7499 22.7181 48.7962 22.8659 48.7962C23.0785 48.7962 23.2287 48.7072 23.3164 48.5293H23.7427C23.685 48.7049 23.5798 48.8493 23.4273 48.9625C23.2772 49.0734 23.09 49.1288 22.8659 49.1288C22.6834 49.1288 22.5194 49.0884 22.3738 49.0076C22.2306 48.9244 22.1174 48.8089 22.0342 48.661C21.9533 48.5108 21.9129 48.3375 21.9129 48.1412C21.9129 47.9448 21.9522 47.7727 22.0307 47.6248C22.1116 47.4746 22.2236 47.3591 22.3669 47.2782C22.5124 47.1974 22.6788 47.157 22.8659 47.157C23.0461 47.157 23.2067 47.1962 23.3476 47.2748C23.4886 47.3533 23.5983 47.4642 23.6769 47.6075C23.7554 47.7484 23.7947 47.9113 23.7947 48.0961ZM23.3823 47.9714C23.38 47.8258 23.328 47.7091 23.2263 47.6213C23.1247 47.5335 22.9988 47.4896 22.8486 47.4896C22.7123 47.4896 22.5956 47.5335 22.4986 47.6213C22.4015 47.7068 22.3438 47.8235 22.3253 47.9714H23.3823ZM24.0518 48.1342C24.0518 47.9425 24.0911 47.7727 24.1696 47.6248C24.2505 47.4769 24.3591 47.3626 24.4954 47.2817C24.634 47.1985 24.7865 47.157 24.9528 47.157C25.103 47.157 25.2335 47.187 25.3444 47.2471C25.4576 47.3048 25.5478 47.3776 25.6148 47.4654V47.1881H26.0133V49.0977H25.6148V48.8135C25.5478 48.9036 25.4565 48.9787 25.341 49.0387C25.2255 49.0988 25.0938 49.1288 24.9459 49.1288C24.7819 49.1288 24.6317 49.0873 24.4954 49.0041C24.3591 48.9186 24.2505 48.8008 24.1696 48.6506C24.0911 48.4981 24.0518 48.326 24.0518 48.1342ZM25.6148 48.1412C25.6148 48.0095 25.587 47.8951 25.5316 47.7981C25.4784 47.701 25.408 47.6271 25.3202 47.5763C25.2324 47.5255 25.1377 47.5 25.036 47.5C24.9344 47.5 24.8396 47.5255 24.7518 47.5763C24.664 47.6248 24.5924 47.6976 24.537 47.7946C24.4838 47.8893 24.4573 48.0025 24.4573 48.1342C24.4573 48.2659 24.4838 48.3814 24.537 48.4808C24.5924 48.5801 24.664 48.6564 24.7518 48.7095C24.8419 48.7603 24.9367 48.7858 25.036 48.7858C25.1377 48.7858 25.2324 48.7603 25.3202 48.7095C25.408 48.6587 25.4784 48.5848 25.5316 48.4877C25.587 48.3884 25.6148 48.2729 25.6148 48.1412ZM26.9273 47.4654C26.985 47.3684 27.0613 47.2933 27.156 47.2401C27.253 47.1847 27.3674 47.157 27.4991 47.157V47.5659H27.3986C27.2438 47.5659 27.126 47.6052 27.0451 47.6837C26.9666 47.7623 26.9273 47.8986 26.9273 48.0926V49.0977H26.5322V47.1881H26.9273V47.4654ZM28.8257 47.157C28.9758 47.157 29.1098 47.1881 29.2277 47.2505C29.3478 47.3129 29.4414 47.4053 29.5084 47.5278C29.5754 47.6502 29.6089 47.7981 29.6089 47.9714V49.0977H29.2173V48.0303C29.2173 47.8593 29.1745 47.7288 29.089 47.6387C29.0036 47.5462 28.8869 47.5 28.739 47.5C28.5912 47.5 28.4733 47.5462 28.3855 47.6387C28.3001 47.7288 28.2573 47.8593 28.2573 48.0303V49.0977H27.8622V47.1881H28.2573V47.4065C28.322 47.3279 28.404 47.2667 28.5034 47.2228C28.605 47.1789 28.7125 47.157 28.8257 47.157ZM30.3138 46.9352C30.2422 46.9352 30.1821 46.9109 30.1336 46.8624C30.0851 46.8139 30.0608 46.7538 30.0608 46.6822C30.0608 46.6106 30.0851 46.5505 30.1336 46.502C30.1821 46.4534 30.2422 46.4292 30.3138 46.4292C30.3831 46.4292 30.442 46.4534 30.4906 46.502C30.5391 46.5505 30.5633 46.6106 30.5633 46.6822C30.5633 46.7538 30.5391 46.8139 30.4906 46.8624C30.442 46.9109 30.3831 46.9352 30.3138 46.9352ZM30.5079 47.1881V49.0977H30.1128V47.1881H30.5079ZM31.99 47.157C32.1402 47.157 32.2742 47.1881 32.392 47.2505C32.5121 47.3129 32.6057 47.4053 32.6727 47.5278C32.7397 47.6502 32.7732 47.7981 32.7732 47.9714V49.0977H32.3816V48.0303C32.3816 47.8593 32.3389 47.7288 32.2534 47.6387C32.1679 47.5462 32.0512 47.5 31.9034 47.5C31.7555 47.5 31.6377 47.5462 31.5499 47.6387C31.4644 47.7288 31.4216 47.8593 31.4216 48.0303V49.0977H31.0266V47.1881H31.4216V47.4065C31.4863 47.3279 31.5684 47.2667 31.6677 47.2228C31.7694 47.1789 31.8768 47.157 31.99 47.157ZM34.0465 47.157C34.1944 47.157 34.3249 47.187 34.4381 47.2471C34.5536 47.3048 34.6437 47.3776 34.7084 47.4654V47.1881H35.107V49.1288C35.107 49.3044 35.07 49.4604 34.9961 49.5967C34.9221 49.7353 34.8147 49.8439 34.6738 49.9225C34.5351 50.001 34.3688 50.0403 34.1747 50.0403C33.916 50.0403 33.7011 49.9791 33.5301 49.8566C33.3592 49.7365 33.2621 49.5724 33.239 49.3645H33.6306C33.6607 49.4638 33.7242 49.5436 33.8212 49.6036C33.9206 49.666 34.0384 49.6972 34.1747 49.6972C34.3341 49.6972 34.4624 49.6487 34.5594 49.5516C34.6587 49.4546 34.7084 49.3137 34.7084 49.1288V48.81C34.6414 48.9001 34.5502 48.9764 34.4346 49.0387C34.3214 49.0988 34.1921 49.1288 34.0465 49.1288C33.8802 49.1288 33.7277 49.0873 33.589 49.0041C33.4527 48.9186 33.3441 48.8008 33.2633 48.6506C33.1847 48.4981 33.1455 48.326 33.1455 48.1342C33.1455 47.9425 33.1847 47.7727 33.2633 47.6248C33.3441 47.4769 33.4527 47.3626 33.589 47.2817C33.7277 47.1985 33.8802 47.157 34.0465 47.157ZM34.7084 48.1412C34.7084 48.0095 34.6807 47.8951 34.6252 47.7981C34.5721 47.701 34.5016 47.6271 34.4138 47.5763C34.3261 47.5255 34.2313 47.5 34.1297 47.5C34.028 47.5 33.9333 47.5255 33.8455 47.5763C33.7577 47.6248 33.6861 47.6976 33.6306 47.7946C33.5775 47.8893 33.5509 48.0025 33.5509 48.1342C33.5509 48.2659 33.5775 48.3814 33.6306 48.4808C33.6861 48.5801 33.7577 48.6564 33.8455 48.7095C33.9356 48.7603 34.0303 48.7858 34.1297 48.7858C34.2313 48.7858 34.3261 48.7603 34.4138 48.7095C34.5016 48.6587 34.5721 48.5848 34.6252 48.4877C34.6807 48.3884 34.7084 48.2729 34.7084 48.1412Z" fill="#1283FB"/>
</svg>
