<svg width="16" height="20" viewBox="0 0 16 20" fill="none" xmlns="http://www.w3.org/2000/svg">
<path fill-rule="evenodd" clip-rule="evenodd" d="M1.72719 0.438262C1.29422 0.875274 1.29293 0.883242 1.29293 3.29392C1.29293 6.00176 1.37358 6.25285 2.34392 6.56236L2.90909 6.74267V8.43087V10.1189L2.32259 9.92409C1.12517 9.52614 0 10.1333 0 11.1775C0 11.8157 0.884849 15.5643 1.24622 16.4561C1.61277 17.3613 2.50764 18.7149 3.20097 19.4132L3.78279 19.9991H7.37487C11.4578 19.9991 11.1809 20.0843 11.9625 18.5871C12.7842 17.0138 13.0877 15.6334 13.199 12.9647C13.3257 9.92987 13.2189 9.16178 12.5847 8.54884C12.1532 8.13151 12.028 8.09355 11.3057 8.16057C10.8653 8.20151 10.5051 8.18307 10.5051 8.11948C10.5051 7.87356 9.32687 7.46967 8.8682 7.55841C8.55758 7.61841 8.18198 7.53904 7.7524 7.32249C7.39604 7.14296 6.96065 7.0325 6.78465 7.07703C6.18812 7.2278 6.4556 6.79251 7.15152 6.48002C8.04251 6.07989 8.22141 5.57319 8.23337 3.41782C8.24452 1.36603 8.15079 0.891367 7.63491 0.392795C7.23556 0.00656222 7.18594 0 4.69511 0H2.16145L1.72719 0.438262ZM9.48477 0.438262C9.05228 0.874649 9.0505 0.886054 9.0505 3.26079C9.0505 4.6701 9.12194 5.77427 9.22505 5.96067C9.53859 6.5269 10.3525 6.71845 12.4444 6.71845C15.6734 6.71845 16 6.4194 16 3.46188C16 1.35635 15.9079 0.891054 15.3925 0.392795C14.9931 0.00656222 14.9435 0 12.4527 0H9.91903L9.48477 0.438262ZM2.61818 1.28119C2.41455 1.47806 2.33487 4.74916 2.52234 5.22133C2.69996 5.66881 2.86578 5.48007 2.95305 4.73135C3.20469 2.57207 6.16954 2.57723 6.4215 4.73745C6.47354 5.18493 6.57988 5.45757 6.68832 5.42273C6.94497 5.34039 7.02206 1.60087 6.77317 1.31104C6.52687 1.02402 2.91103 0.998081 2.61818 1.28119ZM10.3758 1.28119C10.1529 1.49665 10.1031 4.95056 10.3182 5.27805C10.4165 5.42788 10.9757 5.4671 12.5379 5.43429L14.6263 5.39039L14.6718 3.45938C14.7022 2.16897 14.6554 1.45619 14.5307 1.31104C14.2844 1.02402 10.6686 0.998081 10.3758 1.28119ZM4.47257 4.41652C4.2337 4.58776 4.19943 5.15243 4.16259 9.5138C4.12477 13.9894 4.09648 14.4336 3.83838 14.5909C3.30667 14.9151 3.01382 14.5136 2.58586 12.8733C2.15305 11.2151 2.02909 10.9356 1.72784 10.9394C1.16493 10.9464 1.16299 11.1758 1.70634 13.4297C2.27216 15.7773 2.86206 17.1624 3.72202 18.1633L4.22562 18.7492H7.37552H10.5253L10.9784 17.7726C11.7413 16.129 11.8738 15.3157 11.8764 12.2651L11.8788 9.4527L11.4343 9.40333C11.0019 9.35521 10.9899 9.3749 10.9899 10.1366C10.9899 10.7609 10.9194 10.967 10.6416 11.1551C10.3911 11.3248 10.2099 11.3476 9.99515 11.2365C9.75337 11.1115 9.69697 10.8947 9.69697 10.0913C9.69697 9.05366 9.45568 8.62587 8.9718 8.80539C8.80259 8.86804 8.72727 9.11725 8.72727 9.61426C8.72727 10.4688 8.50343 10.937 8.09487 10.937C7.61115 10.937 7.45358 10.5977 7.40202 9.44614C7.35547 8.40322 7.33705 8.359 6.94949 8.359C6.56533 8.359 6.54141 8.41213 6.46465 9.43661C6.3756 10.6239 6.0821 11.0181 5.53535 10.685C5.28485 10.5323 5.24752 10.1731 5.20873 7.53826C5.16251 4.40527 5.06505 3.99154 4.47257 4.41652Z" fill="#9A9A9A"/>
</svg>
