<svg width="16" height="20" viewBox="0 0 16 20" fill="none" xmlns="http://www.w3.org/2000/svg">
<path d="M14.2331 0.15918C15.0977 0.557599 15.3967 1.22476 15.3563 2.13565C15.303 3.32779 15.3515 4.52461 15.3402 5.71831C15.3305 6.80888 14.7745 7.36042 13.648 7.37917C12.5442 7.39792 11.4387 7.39792 10.3349 7.37917C9.20521 7.35886 8.67511 6.82451 8.66218 5.70581C8.64925 4.53711 8.71067 3.36529 8.64279 2.19971C8.59107 1.306 8.88036 0.641971 9.64642 0.160742C11.1753 0.15918 12.7042 0.15918 14.2331 0.15918Z" fill="#1283FB"/>
<path d="M6.7988 0.159375C7.59233 0.623417 7.87193 1.30307 7.83314 2.19053C7.78143 3.38423 7.83476 4.58105 7.81375 5.77631C7.7992 6.61378 7.56486 6.92001 6.74708 7.24187C6.74708 6.73877 6.7584 6.26223 6.74547 5.78725C6.70506 4.34356 5.779 3.37173 4.46345 3.37798C3.14789 3.38423 2.22668 4.37638 2.21375 5.80444C2.2089 6.27942 2.21375 6.75439 2.21375 7.30593C1.459 7.03094 1.14062 6.5419 1.12769 5.88881C1.10183 4.49043 1.11961 3.09049 1.11799 1.69212C1.11638 0.935903 1.60284 0.506234 2.21213 0.15625C3.74102 0.159375 5.26991 0.159375 6.7988 0.159375Z" fill="#1283FB"/>
<path d="M3.37726 14.087C3.37726 12.9199 3.37726 11.7527 3.37726 10.5856C3.37726 9.00756 3.36918 7.42794 3.3805 5.84988C3.38696 4.99836 3.77807 4.53588 4.45848 4.52651C5.14373 4.51713 5.5413 4.98274 5.54777 5.82176C5.55423 6.84047 5.54938 7.85761 5.54938 8.96068C5.97282 8.66538 6.31868 8.29821 6.86494 8.41696C7.43706 8.54039 7.631 8.97943 7.81201 9.44191C8.68797 8.4982 9.4411 8.65601 10.0003 9.9122C10.3979 9.51691 10.8245 9.2138 11.4257 9.47472C12.048 9.74346 12.0965 10.2669 12.0771 10.8215C12.0076 12.8496 12.2936 14.8979 11.7086 16.8963C11.7021 16.9213 11.7021 16.9478 11.694 16.9713C11.3934 17.9228 11.1478 19.0024 10.3736 19.604C9.80312 20.0477 8.80433 19.7149 7.99625 19.7274C6.78575 19.7477 5.57363 19.718 4.36151 19.7415C3.96231 19.7493 3.67302 19.6555 3.40635 19.3493C2.35423 18.1447 1.56555 16.8244 1.25524 15.251C1.06292 14.2792 0.825345 13.3136 0.563526 12.3558C0.400294 11.7574 0.448779 11.2793 1.11949 11.0575C1.8209 10.8247 2.4706 11.1496 2.66777 11.8434C2.8811 12.5902 3.04595 13.3496 3.23019 14.1042C3.28029 14.098 3.32878 14.0933 3.37726 14.087Z" fill="#1283FB"/>
</svg>
