<svg width="17" height="18" viewBox="0 0 17 18" fill="none" xmlns="http://www.w3.org/2000/svg">
<path d="M16.2917 2.76923H12.75V2.07692C12.75 1.52609 12.5261 0.997815 12.1276 0.608317C11.7291 0.218818 11.1886 0 10.625 0H6.375C5.81141 0 5.27091 0.218818 4.8724 0.608317C4.47388 0.997815 4.25 1.52609 4.25 2.07692V2.76923H0.708333C0.520472 2.76923 0.340304 2.84217 0.207466 2.972C0.0746279 3.10184 0 3.27793 0 3.46154C0 3.64515 0.0746279 3.82124 0.207466 3.95107C0.340304 4.08091 0.520472 4.15385 0.708333 4.15385H1.41667V16.6154C1.41667 16.9826 1.56592 17.3348 1.8316 17.5945C2.09728 17.8541 2.45761 18 2.83333 18H14.1667C14.5424 18 14.9027 17.8541 15.1684 17.5945C15.4341 17.3348 15.5833 16.9826 15.5833 16.6154V4.15385H16.2917C16.4795 4.15385 16.6597 4.08091 16.7925 3.95107C16.9254 3.82124 17 3.64515 17 3.46154C17 3.27793 16.9254 3.10184 16.7925 2.972C16.6597 2.84217 16.4795 2.76923 16.2917 2.76923ZM5.66667 2.07692C5.66667 1.89331 5.74129 1.71722 5.87413 1.58739C6.00697 1.45755 6.18714 1.38462 6.375 1.38462H10.625C10.8129 1.38462 10.993 1.45755 11.1259 1.58739C11.2587 1.71722 11.3333 1.89331 11.3333 2.07692V2.76923H5.66667V2.07692ZM14.1667 16.6154H2.83333V4.15385H14.1667V16.6154ZM7.08333 7.61539V13.1538C7.08333 13.3375 7.00871 13.5135 6.87587 13.6434C6.74303 13.7732 6.56286 13.8462 6.375 13.8462C6.18714 13.8462 6.00697 13.7732 5.87413 13.6434C5.74129 13.5135 5.66667 13.3375 5.66667 13.1538V7.61539C5.66667 7.43177 5.74129 7.25568 5.87413 7.12585C6.00697 6.99602 6.18714 6.92308 6.375 6.92308C6.56286 6.92308 6.74303 6.99602 6.87587 7.12585C7.00871 7.25568 7.08333 7.43177 7.08333 7.61539ZM11.3333 7.61539V13.1538C11.3333 13.3375 11.2587 13.5135 11.1259 13.6434C10.993 13.7732 10.8129 13.8462 10.625 13.8462C10.4371 13.8462 10.257 13.7732 10.1241 13.6434C9.99129 13.5135 9.91667 13.3375 9.91667 13.1538V7.61539C9.91667 7.43177 9.99129 7.25568 10.1241 7.12585C10.257 6.99602 10.4371 6.92308 10.625 6.92308C10.8129 6.92308 10.993 6.99602 11.1259 7.12585C11.2587 7.25568 11.3333 7.43177 11.3333 7.61539Z" fill="#4D4ACA"/>
</svg>
