<svg width="21" height="21" viewBox="0 0 21 21" fill="none" xmlns="http://www.w3.org/2000/svg">
<path d="M3.35281 3.31653H7.76439C8.05689 3.31653 8.33742 3.43297 8.54425 3.64024C8.75109 3.84751 8.86728 4.12862 8.86728 4.42174C8.86728 4.71487 8.75109 4.99598 8.54425 5.20325C8.33742 5.41052 8.05689 5.52696 7.76439 5.52696H3.35281C3.0603 5.52696 2.77978 5.6434 2.57294 5.85067C2.36611 6.05794 2.24991 6.33906 2.24991 6.63218V17.3749L3.98146 15.7723C4.18486 15.5815 4.4528 15.4749 4.73143 15.4739H14.3818C14.6743 15.4739 14.9548 15.3575 15.1616 15.1502C15.3685 14.9429 15.4847 14.6618 15.4847 14.3687V13.2635C15.4847 12.9704 15.6008 12.6892 15.8077 12.482C16.0145 12.2747 16.295 12.1583 16.5875 12.1583C16.8801 12.1583 17.1606 12.2747 17.3674 12.482C17.5742 12.6892 17.6904 12.9704 17.6904 13.2635V14.3687C17.6904 15.2481 17.3418 16.0914 16.7214 16.7132C16.1009 17.335 15.2593 17.6843 14.3818 17.6843H5.16156L1.85287 20.7016C1.64947 20.8924 1.38153 20.999 1.1029 21C0.951633 20.9983 0.802011 20.9684 0.661745 20.9116C0.464462 20.8253 0.296686 20.6831 0.1791 20.5024C0.0615139 20.3217 -0.000741959 20.1105 7.62939e-06 19.8948V6.63218C-3.05176e-05 6.19302 0.0869904 5.75822 0.25602 5.35304C0.425049 4.94786 0.672716 4.58036 0.984644 4.27189C1.29657 3.96342 1.66654 3.72012 2.07308 3.55611C2.47961 3.39211 2.91461 3.31067 3.35281 3.31653ZM13.7421 11.053H11.0731C10.7806 11.053 10.5 10.9366 10.2932 10.7293C10.0864 10.5221 9.97018 10.2409 9.97018 9.94783V7.2732C9.96934 7.12775 9.99716 6.98356 10.052 6.8489C10.1069 6.71425 10.1878 6.59177 10.29 6.4885L16.4442 0.321389C16.6508 0.115541 16.9303 0 17.2217 0C17.5131 0 17.7926 0.115541 17.9993 0.321389L20.6793 3.00707C20.8847 3.21414 21 3.49426 21 3.78624C21 4.07823 20.8847 4.35835 20.6793 4.56542L14.5251 10.7325C14.4221 10.835 14.2999 10.916 14.1655 10.971C14.0311 11.026 13.8872 11.0539 13.7421 11.053ZM17.2272 2.66445L12.176 7.72634V8.83156H13.2789L18.3411 3.78072L17.2272 2.66445Z" fill="#EFEFEF"/>
</svg>
