<svg width="23" height="20" viewBox="0 0 23 20" fill="none" xmlns="http://www.w3.org/2000/svg">
<path opacity="0.6" d="M21.2308 0H1.76923C1.3 0 0.849991 0.183224 0.518196 0.509364C0.186401 0.835504 2.26934e-07 1.27784 2.26934e-07 1.73908V19.1298C-0.000107823 19.2781 0.0383701 19.424 0.111776 19.5535C0.185183 19.6831 0.291078 19.7921 0.419397 19.87C0.547715 19.948 0.694193 19.9925 0.844908 19.9991C0.995622 20.0058 1.14556 19.9744 1.28048 19.9081L4.42308 18.3625L7.56567 19.9081C7.68857 19.9685 7.82411 20 7.96154 20C8.09897 20 8.2345 19.9685 8.3574 19.9081L11.5 18.3625L14.6426 19.9081C14.7655 19.9685 14.901 20 15.0385 20C15.1759 20 15.3114 19.9685 15.4343 19.9081L18.5769 18.3625L21.7195 19.9081C21.8544 19.9744 22.0044 20.0058 22.1551 19.9991C22.3058 19.9925 22.4523 19.948 22.5806 19.87C22.7089 19.7921 22.8148 19.6831 22.8882 19.5535C22.9616 19.424 23.0001 19.2781 23 19.1298V1.73908C23 1.27784 22.8136 0.835504 22.4818 0.509364C22.15 0.183224 21.7 0 21.2308 0ZM21.2308 17.7234L18.9728 16.6125C18.8499 16.5521 18.7143 16.5206 18.5769 16.5206C18.4395 16.5206 18.304 16.5521 18.1811 16.6125L15.0385 18.1581L11.8959 16.6125C11.773 16.5521 11.6374 16.5206 11.5 16.5206C11.3626 16.5206 11.227 16.5521 11.1041 16.6125L7.96154 18.1581L4.81894 16.6125C4.69604 16.5521 4.5605 16.5206 4.42308 16.5206C4.28565 16.5206 4.15011 16.5521 4.02721 16.6125L1.76923 17.7234V1.73908H21.2308V17.7234ZM4.02721 13.8213C4.13117 13.8725 4.24437 13.903 4.36034 13.9112C4.47631 13.9193 4.59277 13.9049 4.70307 13.8687C4.81337 13.8326 4.91534 13.7754 5.00315 13.7005C5.09095 13.6256 5.16288 13.5344 5.21481 13.4322L5.85394 12.1735H10.0691L10.7083 13.4322C10.7603 13.5344 10.8322 13.6255 10.92 13.7004C11.0078 13.7753 11.1098 13.8324 11.2201 13.8685C11.3304 13.9046 11.4468 13.9191 11.5627 13.911C11.6787 13.9029 11.7919 13.8724 11.8959 13.8213C11.9998 13.7702 12.0926 13.6995 12.1687 13.6132C12.2449 13.5268 12.303 13.4266 12.3398 13.3182C12.3765 13.2098 12.3912 13.0954 12.383 12.9814C12.3747 12.8674 12.3437 12.7562 12.2917 12.654L8.75327 5.69765C8.6799 5.55295 8.56695 5.43122 8.42709 5.34614C8.28723 5.26105 8.12601 5.21598 7.96154 5.21598C7.79706 5.21598 7.63584 5.26105 7.49599 5.34614C7.35613 5.43122 7.24317 5.55295 7.16981 5.69765L3.63135 12.654C3.57928 12.7561 3.54823 12.8674 3.53995 12.9814C3.53167 13.0954 3.54633 13.2099 3.5831 13.3183C3.61986 13.4267 3.67801 13.5269 3.75422 13.6133C3.83042 13.6996 3.92319 13.7703 4.02721 13.8213ZM7.96154 8.03127L9.18452 10.4345H6.73856L7.96154 8.03127ZM12.3846 9.56492C12.3846 9.3343 12.4778 9.11313 12.6437 8.95006C12.8096 8.78699 13.0346 8.69538 13.2692 8.69538H15.0385V6.95631C15.0385 6.72569 15.1317 6.50452 15.2976 6.34145C15.4635 6.17838 15.6885 6.08677 15.9231 6.08677C16.1577 6.08677 16.3827 6.17838 16.5486 6.34145C16.7145 6.50452 16.8077 6.72569 16.8077 6.95631V8.69538H18.5769C18.8115 8.69538 19.0365 8.78699 19.2024 8.95006C19.3683 9.11313 19.4615 9.3343 19.4615 9.56492C19.4615 9.79554 19.3683 10.0167 19.2024 10.1798C19.0365 10.3428 18.8115 10.4345 18.5769 10.4345H16.8077V12.1735C16.8077 12.4042 16.7145 12.6253 16.5486 12.7884C16.3827 12.9515 16.1577 13.0431 15.9231 13.0431C15.6885 13.0431 15.4635 12.9515 15.2976 12.7884C15.1317 12.6253 15.0385 12.4042 15.0385 12.1735V10.4345H13.2692C13.0346 10.4345 12.8096 10.3428 12.6437 10.1798C12.4778 10.0167 12.3846 9.79554 12.3846 9.56492Z" fill="#565656"/>
</svg>
