<svg width="21" height="20" viewBox="0 0 21 20" fill="none" xmlns="http://www.w3.org/2000/svg">
<path d="M7.29701 8.08105L8.40407 10.3016H6.18995L7.29701 8.08105ZM20.9101 2.26706V18.3361C20.9102 18.4732 20.8754 18.6079 20.8089 18.7276C20.7425 18.8473 20.6466 18.948 20.5304 19.0201C20.4143 19.0921 20.2817 19.1332 20.1453 19.1393C20.0088 19.1455 19.8731 19.1165 19.751 19.0552L16.9062 17.6271L14.0615 19.0552C13.9503 19.1111 13.8276 19.1402 13.7032 19.1402C13.5788 19.1402 13.4561 19.1111 13.3448 19.0552L10.5001 17.6271L7.65535 19.0552C7.5441 19.1111 7.42141 19.1402 7.29701 19.1402C7.17261 19.1402 7.04992 19.1111 6.93867 19.0552L4.09393 17.6271L1.2492 19.0552C1.12707 19.1165 0.991342 19.1455 0.854913 19.1393C0.718484 19.1332 0.585889 19.0921 0.469733 19.0201C0.353577 18.948 0.257718 18.8473 0.19127 18.7276C0.124821 18.6079 0.0899903 18.4732 0.0900881 18.3361V2.26706C0.0900881 1.84088 0.258821 1.43216 0.559168 1.13081C0.859514 0.829455 1.26687 0.660156 1.69163 0.660156H19.3085C19.7333 0.660156 20.1407 0.829455 20.441 1.13081C20.7414 1.43216 20.9101 1.84088 20.9101 2.26706ZM11.2168 12.3524L8.0137 5.92478C7.94729 5.79108 7.84504 5.67861 7.71844 5.59999C7.59184 5.52137 7.4459 5.47972 7.29701 5.47972C7.14812 5.47972 7.00219 5.52137 6.87558 5.59999C6.74898 5.67861 6.64674 5.79108 6.58032 5.92478L3.37725 12.3524C3.28221 12.5431 3.26657 12.7639 3.33377 12.9662C3.40097 13.1685 3.54551 13.3357 3.73559 13.431C3.92567 13.5264 4.14571 13.5421 4.34732 13.4747C4.54893 13.4072 4.71558 13.2622 4.81062 13.0715L5.38918 11.9085H9.20484L9.7834 13.0715C9.83046 13.1659 9.89559 13.2501 9.97509 13.3193C10.0546 13.3885 10.1469 13.4413 10.2467 13.4747C10.3465 13.5081 10.4519 13.5214 10.5569 13.5139C10.6619 13.5064 10.7643 13.4783 10.8584 13.431C10.9525 13.3838 11.0365 13.3185 11.1054 13.2387C11.1744 13.159 11.227 13.0664 11.2603 12.9662C11.2935 12.866 11.3068 12.7603 11.2994 12.655C11.2919 12.5496 11.2638 12.4468 11.2168 12.3524ZM18.5078 9.49814C18.5078 9.28505 18.4234 9.08069 18.2732 8.93001C18.1231 8.77934 17.9194 8.69469 17.707 8.69469H16.1055V7.08778C16.1055 6.87469 16.0211 6.67033 15.8709 6.51965C15.7208 6.36898 15.5171 6.28433 15.3047 6.28433C15.0923 6.28433 14.8886 6.36898 14.7385 6.51965C14.5883 6.67033 14.5039 6.87469 14.5039 7.08778V8.69469H12.9024C12.69 8.69469 12.4863 8.77934 12.3362 8.93001C12.186 9.08069 12.1016 9.28505 12.1016 9.49814C12.1016 9.71123 12.186 9.91559 12.3362 10.0663C12.4863 10.2169 12.69 10.3016 12.9024 10.3016H14.5039V11.9085C14.5039 12.1216 14.5883 12.326 14.7385 12.4766C14.8886 12.6273 15.0923 12.712 15.3047 12.712C15.5171 12.712 15.7208 12.6273 15.8709 12.4766C16.0211 12.326 16.1055 12.1216 16.1055 11.9085V10.3016H17.707C17.9194 10.3016 18.1231 10.2169 18.2732 10.0663C18.4234 9.91559 18.5078 9.71123 18.5078 9.49814Z" fill="#1283FB"/>
</svg>
