<svg width="20" height="21" viewBox="0 0 20 21" fill="none" xmlns="http://www.w3.org/2000/svg">
<path opacity="0.6" d="M19.2025 8.36766L11.1941 0.788904C11.1902 0.785478 11.1865 0.781787 11.1831 0.777859C10.8883 0.508901 10.504 0.359863 10.1055 0.359863C9.70695 0.359863 9.32272 0.508901 9.02787 0.777859L9.01686 0.788904L1.01754 8.36766C0.854366 8.51816 0.724117 8.70099 0.635032 8.90459C0.545947 9.10818 0.499966 9.32811 0.5 9.55046V18.8331C0.5 19.2592 0.668746 19.6678 0.969117 19.9691C1.26949 20.2704 1.67688 20.4396 2.10167 20.4396H6.90667C7.33145 20.4396 7.73884 20.2704 8.03921 19.9691C8.33959 19.6678 8.50833 19.2592 8.50833 18.8331V14.0136H11.7117V18.8331C11.7117 19.2592 11.8804 19.6678 12.1808 19.9691C12.4812 20.2704 12.8885 20.4396 13.3133 20.4396H18.1183C18.5431 20.4396 18.9505 20.2704 19.2509 19.9691C19.5513 19.6678 19.72 19.2592 19.72 18.8331V9.55046C19.72 9.32811 19.6741 9.10818 19.585 8.90459C19.4959 8.70099 19.3656 8.51816 19.2025 8.36766ZM18.1183 18.8331H13.3133V14.0136C13.3133 13.5875 13.1446 13.1789 12.8442 12.8776C12.5438 12.5763 12.1365 12.407 11.7117 12.407H8.50833C8.08354 12.407 7.67615 12.5763 7.37578 12.8776C7.07541 13.1789 6.90667 13.5875 6.90667 14.0136V18.8331H2.10167V9.55046L2.11268 9.54042L10.11 1.96467L18.1083 9.53841L18.1193 9.54845L18.1183 18.8331Z" fill="#565656"/>
</svg>
