<svg width="20" height="21" viewBox="0 0 20 21" fill="none" xmlns="http://www.w3.org/2000/svg">
<path d="M19.6101 9.52024V19.1359C19.6101 19.5772 19.4414 20.0005 19.141 20.3126C18.8406 20.6247 18.4332 20.8 18.0084 20.8H14.0043C13.5795 20.8 13.1721 20.6247 12.8717 20.3126C12.5714 20.0005 12.4026 19.5772 12.4026 19.1359V14.9755C12.4026 14.7548 12.3182 14.5432 12.1681 14.3871C12.0179 14.2311 11.8142 14.1434 11.6018 14.1434H8.39846C8.18607 14.1434 7.98237 14.2311 7.83219 14.3871C7.682 14.5432 7.59763 14.7548 7.59763 14.9755V19.1359C7.59763 19.5772 7.42888 20.0005 7.12851 20.3126C6.82814 20.6247 6.42075 20.8 5.99596 20.8H1.9918C1.56701 20.8 1.15962 20.6247 0.859253 20.3126C0.558883 20.0005 0.390137 19.5772 0.390137 19.1359V9.52024C0.390103 9.28992 0.436084 9.06211 0.525169 8.8512C0.614254 8.6403 0.744503 8.45091 0.907674 8.29502L8.916 0.444429L8.92701 0.432988C9.22186 0.154383 9.60608 0 10.0046 0C10.4032 0 10.7874 0.154383 11.0822 0.432988C11.0857 0.437058 11.0893 0.44088 11.0933 0.444429L19.1016 8.29502C19.2631 8.45174 19.3917 8.6415 19.4792 8.85236C19.5667 9.06322 19.6113 9.29061 19.6101 9.52024Z" fill="#1283FB"/>
</svg>
