<svg width="32" height="34" viewBox="0 0 32 34" fill="none" xmlns="http://www.w3.org/2000/svg">
<g filter="url(#filter0_d_514_1568)">
<path d="M20.9973 29C20.9973 29.2652 20.8919 29.5196 20.7044 29.7071C20.5169 29.8946 20.2625 30 19.9973 30H11.9973C11.7321 30 11.4777 29.8946 11.2902 29.7071C11.1027 29.5196 10.9973 29.2652 10.9973 29C10.9973 28.7348 11.1027 28.4804 11.2902 28.2929C11.4777 28.1054 11.7321 28 11.9973 28H19.9973C20.2625 28 20.5169 28.1054 20.7044 28.2929C20.8919 28.4804 20.9973 28.7348 20.9973 29ZM27.7286 25C27.5551 25.3056 27.3031 25.5595 26.9988 25.7353C26.6945 25.911 26.3487 26.0024 25.9973 26H5.9973C5.64572 25.9995 5.30048 25.9064 4.99637 25.73C4.69226 25.5535 4.44004 25.3 4.26511 24.9951C4.09019 24.6901 3.99875 24.3444 4.00001 23.9928C4.00127 23.6412 4.09519 23.2962 4.2723 22.9925C4.96605 21.7975 5.9973 18.4175 5.9973 14C5.9973 11.3478 7.05087 8.8043 8.92623 6.92893C10.8016 5.05357 13.3451 4 15.9973 4C18.6495 4 21.193 5.05357 23.0684 6.92893C24.9437 8.8043 25.9973 11.3478 25.9973 14C25.9973 18.4163 27.0298 21.7975 27.7236 22.9925C27.9024 23.2966 27.9971 23.6429 27.9977 23.9957C27.9984 24.3486 27.905 24.6952 27.7273 25H27.7286ZM25.9973 24C25.0311 22.3412 23.9973 18.5063 23.9973 14C23.9973 11.8783 23.1544 9.84344 21.6542 8.34315C20.1539 6.84285 18.119 6 15.9973 6C13.8756 6 11.8407 6.84285 10.3404 8.34315C8.84016 9.84344 7.9973 11.8783 7.9973 14C7.9973 18.5075 6.9623 22.3425 5.9973 24H25.9973Z" fill="#9A9A9A"/>
</g>
<defs>
<filter id="filter0_d_514_1568" x="0" y="0" width="31.9976" height="34" filterUnits="userSpaceOnUse" color-interpolation-filters="sRGB">
<feFlood flood-opacity="0" result="BackgroundImageFix"/>
<feColorMatrix in="SourceAlpha" type="matrix" values="0 0 0 0 0 0 0 0 0 0 0 0 0 0 0 0 0 0 127 0" result="hardAlpha"/>
<feOffset/>
<feGaussianBlur stdDeviation="2"/>
<feComposite in2="hardAlpha" operator="out"/>
<feColorMatrix type="matrix" values="0 0 0 0 0 0 0 0 0 0 0 0 0 0 0 0 0 0 0.1 0"/>
<feBlend mode="normal" in2="BackgroundImageFix" result="effect1_dropShadow_514_1568"/>
<feBlend mode="normal" in="SourceGraphic" in2="effect1_dropShadow_514_1568" result="shape"/>
</filter>
</defs>
</svg>
