<svg width="34" height="34" viewBox="0 0 34 34" fill="none" xmlns="http://www.w3.org/2000/svg">
<path d="M17 0C13.6377 0 10.3509 0.997032 7.55531 2.86502C4.75968 4.733 2.58074 7.38804 1.29406 10.4944C0.00736583 13.6007 -0.329291 17.0189 0.326658 20.3165C0.982607 23.6142 2.6017 26.6433 4.97919 29.0208C7.35668 31.3983 10.3858 33.0174 13.6835 33.6733C16.9811 34.3293 20.3993 33.9926 23.5056 32.7059C26.612 31.4193 29.267 29.2403 31.135 26.4447C33.003 23.6491 34 20.3623 34 17C33.9944 12.493 32.2015 8.17229 29.0146 4.98539C25.8277 1.79849 21.507 0.00562315 17 0ZM22.9565 18.0887L15.1104 23.3194C14.8952 23.462 14.6428 23.5382 14.3846 23.5385C14.0378 23.5385 13.7052 23.4007 13.4599 23.1554C13.2147 22.9102 13.0769 22.5776 13.0769 22.2308V11.7692C13.0768 11.5324 13.1409 11.3 13.2625 11.0968C13.3841 10.8936 13.5586 10.7273 13.7674 10.6155C13.9762 10.5037 14.2114 10.4508 14.4479 10.4622C14.6844 10.4737 14.9134 10.5491 15.1104 10.6806L22.9565 15.9113C23.1359 16.0307 23.283 16.1926 23.3848 16.3825C23.4865 16.5724 23.5397 16.7845 23.5397 17C23.5397 17.2155 23.4865 17.4276 23.3848 17.6175C23.283 17.8074 23.1359 17.9693 22.9565 18.0887Z" fill="#062E58"/>
</svg>
