<svg width="21" height="21" viewBox="0 0 21 21" fill="none" xmlns="http://www.w3.org/2000/svg">
<path d="M14.7308 9.91045C14.7308 10.7472 14.4826 11.5652 14.0178 12.2609C13.5529 12.9567 12.8921 13.499 12.119 13.8192C11.346 14.1394 10.4953 14.2232 9.67462 14.0599C8.85393 13.8967 8.10008 13.4937 7.5084 12.9021C6.91671 12.3104 6.51377 11.5565 6.35053 10.7358C6.18728 9.91515 6.27107 9.06448 6.59128 8.29141C6.9115 7.51834 7.45377 6.85758 8.14951 6.3927C8.84526 5.92782 9.66324 5.67969 10.5 5.67969C11.6217 5.68096 12.6971 6.12711 13.4902 6.92026C14.2833 7.7134 14.7295 8.78878 14.7308 9.91045ZM20.5 10.6797C20.5 12.6575 19.9135 14.5909 18.8147 16.2354C17.7159 17.8799 16.1541 19.1616 14.3268 19.9185C12.4996 20.6754 10.4889 20.8734 8.5491 20.4875C6.60929 20.1017 4.82746 19.1493 3.42894 17.7508C2.03041 16.3522 1.078 14.5704 0.692152 12.6306C0.3063 10.6908 0.504333 8.68011 1.26121 6.85285C2.01809 5.02559 3.29981 3.4638 4.9443 2.36499C6.58879 1.26618 8.52219 0.679688 10.5 0.679688C13.1513 0.682487 15.6932 1.73695 17.568 3.61171C19.4427 5.48647 20.4972 8.02838 20.5 10.6797ZM18.9615 10.6797C18.9603 9.54078 18.7294 8.41381 18.2826 7.36619C17.8359 6.31856 17.1824 5.37179 16.3614 4.58251C15.5403 3.79322 14.5685 3.17763 13.5041 2.77253C12.4396 2.36744 11.3044 2.18118 10.1663 2.22488C5.6375 2.39988 2.02597 6.17199 2.03847 10.7037C2.04281 12.7667 2.80368 14.7565 4.17693 16.296C4.73618 15.4849 5.44658 14.7892 6.26923 14.247C6.33937 14.2007 6.42276 14.1786 6.50663 14.1842C6.5905 14.1897 6.67024 14.2226 6.73366 14.2778C7.77902 15.1819 9.11497 15.6795 10.4971 15.6795C11.8793 15.6795 13.2152 15.1819 14.2606 14.2778C14.324 14.2226 14.4037 14.1897 14.4876 14.1842C14.5715 14.1786 14.6549 14.2007 14.725 14.247C15.5487 14.7889 16.2601 15.4846 16.8202 16.296C18.2002 14.7509 18.9626 12.7514 18.9615 10.6797Z" fill="#1283FB"/>
</svg>
