<svg width="16" height="16" viewBox="0 0 16 16" fill="none" xmlns="http://www.w3.org/2000/svg">
<path opacity="0.9" d="M12.5228 8.34894L8.96347 7.0386L7.65313 3.47654C7.57553 3.26573 7.43514 3.0838 7.25089 2.95529C7.06665 2.82678 6.84742 2.75788 6.62279 2.75788C6.39815 2.75788 6.17892 2.82678 5.99468 2.95529C5.81043 3.0838 5.67004 3.26573 5.59244 3.47654L4.28072 7.03446L0.718664 8.3448C0.507857 8.4224 0.325925 8.56279 0.197414 8.74704C0.0689037 8.93128 0 9.15051 0 9.37515C0 9.59978 0.0689037 9.81901 0.197414 10.0033C0.325925 10.1875 0.507857 10.3279 0.718664 10.4055L4.2759 11.7241L5.58624 15.2841C5.66383 15.4949 5.80423 15.6768 5.98847 15.8053C6.17271 15.9339 6.39194 16.0028 6.61658 16.0028C6.84121 16.0028 7.06044 15.9339 7.24469 15.8053C7.42893 15.6768 7.56932 15.4949 7.64692 15.2841L8.95726 11.7248L12.5193 10.4145C12.7301 10.3369 12.9121 10.1965 13.0406 10.0122C13.1691 9.82798 13.238 9.60875 13.238 9.38411C13.238 9.15948 13.1691 8.94025 13.0406 8.756C12.9121 8.57176 12.7301 8.43137 12.5193 8.35377L12.5228 8.34894ZM8.57864 10.6896C8.42955 10.7443 8.29415 10.8309 8.18184 10.9432C8.06954 11.0555 7.98302 11.1909 7.9283 11.34L6.61796 14.8889L5.31038 11.3372C5.25561 11.1889 5.16936 11.0542 5.05757 10.9424C4.94578 10.8306 4.8111 10.7444 4.66279 10.6896L1.11384 9.37928L4.66279 8.06894C4.8111 8.01418 4.94578 7.92793 5.05757 7.81614C5.16936 7.70435 5.25561 7.56967 5.31038 7.42136L6.62072 3.8724L7.93106 7.42136C7.98578 7.57045 8.0723 7.70585 8.1846 7.81816C8.2969 7.93046 8.4323 8.01698 8.5814 8.0717L12.1304 9.38204L8.57864 10.6896ZM8.82761 2.20689C8.82761 2.06056 8.88573 1.92023 8.9892 1.81676C9.09267 1.7133 9.233 1.65517 9.37933 1.65517H10.4828V0.551723C10.4828 0.405397 10.5409 0.265064 10.6444 0.161596C10.7478 0.0581277 10.8882 0 11.0345 0C11.1808 0 11.3212 0.0581277 11.4246 0.161596C11.5281 0.265064 11.5862 0.405397 11.5862 0.551723V1.65517H12.6897C12.836 1.65517 12.9763 1.7133 13.0798 1.81676C13.1833 1.92023 13.2414 2.06056 13.2414 2.20689C13.2414 2.35322 13.1833 2.49355 13.0798 2.59702C12.9763 2.70048 12.836 2.75861 12.6897 2.75861H11.5862V3.86206C11.5862 4.00838 11.5281 4.14872 11.4246 4.25218C11.3212 4.35565 11.1808 4.41378 11.0345 4.41378C10.8882 4.41378 10.7478 4.35565 10.6444 4.25218C10.5409 4.14872 10.4828 4.00838 10.4828 3.86206V2.75861H9.37933C9.233 2.75861 9.09267 2.70048 8.9892 2.59702C8.88573 2.49355 8.82761 2.35322 8.82761 2.20689ZM16 5.51723C16 5.66355 15.9419 5.80388 15.8384 5.90735C15.7349 6.01082 15.5946 6.06895 15.4483 6.06895H14.8966V6.62067C14.8966 6.767 14.8384 6.90733 14.735 7.0108C14.6315 7.11427 14.4912 7.17239 14.3448 7.17239C14.1985 7.17239 14.0582 7.11427 13.9547 7.0108C13.8512 6.90733 13.7931 6.767 13.7931 6.62067V6.06895H13.2414C13.0951 6.06895 12.9547 6.01082 12.8513 5.90735C12.7478 5.80388 12.6897 5.66355 12.6897 5.51723C12.6897 5.3709 12.7478 5.23057 12.8513 5.1271C12.9547 5.02363 13.0951 4.9655 13.2414 4.9655H13.7931V4.41378C13.7931 4.26745 13.8512 4.12712 13.9547 4.02365C14.0582 3.92019 14.1985 3.86206 14.3448 3.86206C14.4912 3.86206 14.6315 3.92019 14.735 4.02365C14.8384 4.12712 14.8966 4.26745 14.8966 4.41378V4.9655H15.4483C15.5946 4.9655 15.7349 5.02363 15.8384 5.1271C15.9419 5.23057 16 5.3709 16 5.51723Z" fill="#0601B4"/>
</svg>
