<svg width="14" height="17" viewBox="0 0 14 17" fill="none" xmlns="http://www.w3.org/2000/svg">
<path opacity="0.9" d="M11.083 10.9294C10.694 10.9293 10.3088 11.0104 9.95048 11.168C9.59211 11.3256 9.26776 11.5564 8.99664 11.8469L5.63603 9.59847C5.90038 8.89284 5.90038 8.10959 5.63603 7.40396L8.99664 5.15558C9.50142 5.69382 10.1802 6.01779 10.9014 6.06467C11.6227 6.11154 12.3349 5.87799 12.9001 5.40929C13.4653 4.94059 13.8432 4.27013 13.9604 3.5279C14.0777 2.78567 13.9261 2.02456 13.5349 1.39211C13.1437 0.759668 12.5408 0.300955 11.8431 0.104908C11.1455 -0.0911387 10.4028 -0.0105531 9.75896 0.331041C9.11515 0.672636 8.61613 1.2509 8.35863 1.95373C8.10114 2.65655 8.10353 3.43387 8.36534 4.13496L5.00473 6.38335C4.60005 5.95088 4.08066 5.65385 3.51297 5.53024C2.94527 5.40663 2.35506 5.46205 1.81778 5.68941C1.2805 5.91677 0.820564 6.30575 0.49676 6.80662C0.172957 7.30749 0 7.89749 0 8.50121C0 9.10494 0.172957 9.69494 0.49676 10.1958C0.820564 10.6967 1.2805 11.0857 1.81778 11.313C2.35506 11.5404 2.94527 11.5958 3.51297 11.4722C4.08066 11.3486 4.60005 11.0516 5.00473 10.6191L8.36534 12.8675C8.14021 13.4719 8.10689 14.1355 8.27027 14.761C8.43366 15.3866 8.78515 15.9412 9.27329 16.3438C9.76143 16.7464 10.3606 16.9757 10.983 16.9982C11.6054 17.0207 12.2183 16.8351 12.7321 16.4687C13.2459 16.1024 13.6334 15.5744 13.8381 14.9621C14.0427 14.3498 14.0537 13.6855 13.8693 13.0663C13.685 12.447 13.315 11.9055 12.8136 11.521C12.3122 11.1365 11.7058 10.9292 11.083 10.9294ZM11.083 1.21654C11.429 1.21654 11.7673 1.32335 12.055 1.52347C12.3427 1.72358 12.5669 2.00801 12.6994 2.34078C12.8318 2.67355 12.8664 3.03973 12.7989 3.393C12.7314 3.74628 12.5648 4.07078 12.3201 4.32547C12.0754 4.58017 11.7637 4.75362 11.4243 4.82389C11.0849 4.89416 10.7331 4.85809 10.4135 4.72025C10.0938 4.58241 9.82052 4.34899 9.62828 4.0495C9.43604 3.75001 9.33343 3.3979 9.33343 3.03771C9.33343 2.55471 9.51775 2.09149 9.84586 1.74995C10.174 1.40842 10.619 1.21654 11.083 1.21654ZM2.91838 10.3224C2.57235 10.3224 2.23409 10.2156 1.94638 10.0155C1.65867 9.81535 1.43442 9.53092 1.302 9.19815C1.16958 8.86537 1.13494 8.4992 1.20244 8.14592C1.26995 7.79265 1.43658 7.46815 1.68126 7.21346C1.92594 6.95876 2.23768 6.78531 2.57706 6.71504C2.91644 6.64477 3.26822 6.68084 3.58791 6.81868C3.9076 6.95652 4.18084 7.18994 4.37309 7.48943C4.56533 7.78892 4.66794 8.14102 4.66794 8.50121C4.66794 8.98422 4.48361 9.44744 4.15551 9.78898C3.8274 10.1305 3.38239 10.3224 2.91838 10.3224ZM11.083 15.7859C10.737 15.7859 10.3987 15.6791 10.111 15.479C9.82327 15.2789 9.59902 14.9944 9.4666 14.6617C9.33418 14.3289 9.29954 13.9627 9.36704 13.6094C9.43455 13.2562 9.60118 12.9317 9.84586 12.677C10.0905 12.4223 10.4023 12.2488 10.7417 12.1785C11.081 12.1083 11.4328 12.1443 11.7525 12.2822C12.0722 12.42 12.3454 12.6534 12.5377 12.9529C12.7299 13.2524 12.8325 13.6045 12.8325 13.9647C12.8325 14.4477 12.6482 14.9109 12.3201 15.2525C11.992 15.594 11.547 15.7859 11.083 15.7859Z" fill="#0601B4"/>
</svg>
