<svg width="18" height="15" viewBox="0 0 18 15" fill="none" xmlns="http://www.w3.org/2000/svg">
<path opacity="0.7" d="M7.07143 5.625C7.07143 5.45924 7.13916 5.30027 7.25972 5.18306C7.38028 5.06585 7.54379 5 7.71429 5H12.8571C13.0276 5 13.1912 5.06585 13.3117 5.18306C13.4323 5.30027 13.5 5.45924 13.5 5.625C13.5 5.79076 13.4323 5.94973 13.3117 6.06694C13.1912 6.18415 13.0276 6.25 12.8571 6.25H7.71429C7.54379 6.25 7.38028 6.18415 7.25972 6.06694C7.13916 5.94973 7.07143 5.79076 7.07143 5.625ZM7.71429 8.75H12.8571C13.0276 8.75 13.1912 8.68415 13.3117 8.56694C13.4323 8.44973 13.5 8.29076 13.5 8.125C13.5 7.95924 13.4323 7.80027 13.3117 7.68306C13.1912 7.56585 13.0276 7.5 12.8571 7.5H7.71429C7.54379 7.5 7.38028 7.56585 7.25972 7.68306C7.13916 7.80027 7.07143 7.95924 7.07143 8.125C7.07143 8.29076 7.13916 8.44973 7.25972 8.56694C7.38028 8.68415 7.54379 8.75 7.71429 8.75ZM18 12.5C18 13.163 17.7291 13.7989 17.2468 14.2678C16.7646 14.7366 16.1106 15 15.4286 15H6.42857C5.74659 15 5.09253 14.7366 4.6103 14.2678C4.12806 13.7989 3.85714 13.163 3.85714 12.5V2.5C3.85714 2.16848 3.72168 1.85054 3.48057 1.61612C3.23945 1.3817 2.91242 1.25 2.57143 1.25C2.23044 1.25 1.90341 1.3817 1.66229 1.61612C1.42117 1.85054 1.28571 2.16848 1.28571 2.5C1.28571 2.94844 1.67384 3.25156 1.67786 3.25469C1.78425 3.33429 1.86234 3.44428 1.90117 3.56922C1.94001 3.69416 1.93763 3.82779 1.89438 3.95135C1.85113 4.07491 1.76917 4.18221 1.66001 4.25819C1.55085 4.33417 1.41997 4.37502 1.28571 4.375C1.1467 4.37523 1.01145 4.33104 0.900804 4.24922C0.807589 4.18281 0 3.56328 0 2.5C0 1.83696 0.270918 1.20107 0.753154 0.732233C1.23539 0.263392 1.88944 0 2.57143 0H13.5C14.182 0 14.836 0.263392 15.3183 0.732233C15.8005 1.20107 16.0714 1.83696 16.0714 2.5V10.625H16.7143C16.8534 10.625 16.9887 10.6689 17.1 10.75C17.1964 10.8172 18 11.4367 18 12.5ZM7.09232 11.0531C7.13625 10.9271 7.22007 10.8178 7.33179 10.7409C7.44352 10.664 7.57741 10.6234 7.71429 10.625H14.7857V2.5C14.7857 2.16848 14.6503 1.85054 14.4091 1.61612C14.168 1.3817 13.841 1.25 13.5 1.25H4.79652C5.02388 1.62946 5.14341 2.06085 5.14286 2.5V12.5C5.14286 12.8315 5.27832 13.1495 5.51943 13.3839C5.76055 13.6183 6.08758 13.75 6.42857 13.75C6.76956 13.75 7.09659 13.6183 7.33771 13.3839C7.57883 13.1495 7.71429 12.8315 7.71429 12.5C7.71429 12.0516 7.32616 11.7484 7.32214 11.7453C7.21259 11.6691 7.13111 11.5607 7.08974 11.4361C7.04836 11.3115 7.04926 11.1772 7.09232 11.0531ZM16.7143 12.5C16.7062 12.2684 16.6143 12.0471 16.4547 11.875H8.90116C8.96577 12.0774 8.99855 12.2881 8.99839 12.5C8.99901 12.9389 8.88007 13.3702 8.65366 13.75H15.4286C15.7696 13.75 16.0966 13.6183 16.3377 13.3839C16.5788 13.1495 16.7143 12.8315 16.7143 12.5Z" fill="#0601B4"/>
</svg>
