<svg width="14" height="14" viewBox="0 0 14 14" fill="none" xmlns="http://www.w3.org/2000/svg">
<path d="M7 14C3.14 14 0 10.86 0 7C0 3.14 3.14 0 7 0C10.86 0 14 3.14 14 7C14 10.86 10.86 14 7 14ZM7 1C3.69 1 1 3.69 1 7C1 10.31 3.69 13 7 13C10.31 13 13 10.31 13 7C13 3.69 10.31 1 7 1Z" fill="#062E58"/>
<path d="M9.00003 9.5C8.91003 9.5 8.82003 9.48 8.74003 9.43L6.24003 7.93C6.16598 7.8855 6.10487 7.8224 6.06277 7.74696C6.02066 7.67153 5.99904 7.58638 6.00003 7.5V3.5C6.00003 3.22 6.22003 3 6.50003 3C6.78003 3 7.00003 3.22 7.00003 3.5V7.22L9.26003 8.57C9.35312 8.62705 9.42507 8.7129 9.46497 8.81453C9.50488 8.91615 9.51057 9.02802 9.48117 9.13317C9.45177 9.23831 9.3889 9.33101 9.30207 9.39721C9.21525 9.46341 9.10921 9.49949 9.00003 9.5Z" fill="#062E58"/>
</svg>
