<svg width="50" height="50" viewBox="0 0 50 50" fill="none" xmlns="http://www.w3.org/2000/svg">
<path d="M25 -1.09278e-06C38.8071 -1.69631e-06 50 11.1929 50 25C50 38.8071 38.8071 50 25 50C11.1929 50 -4.89256e-07 38.8071 -1.09278e-06 25C-1.69631e-06 11.1929 11.1929 -4.89256e-07 25 -1.09278e-06ZM25 42.9857C34.9332 42.9857 42.9857 34.9332 42.9857 25C42.9857 15.0668 34.9332 7.01428 25 7.01428C15.0668 7.01428 7.01428 15.0668 7.01428 25C7.01428 34.9332 15.0668 42.9857 25 42.9857Z" fill="url(#paint0_radial_108_6746)"/>
<path d="M19.6501 28.2301C19.1912 28.2228 18.7323 28.1354 18.2734 27.9679C17.8145 27.8003 17.3956 27.5181 17.0168 27.1211C16.6381 26.7204 16.3339 26.1796 16.1045 25.4985C15.875 24.8137 15.7603 23.9542 15.7603 22.9198C15.7603 21.9291 15.8532 21.0514 16.0389 20.2865C16.2247 19.518 16.4942 18.8715 16.8475 18.347C17.2008 17.8189 17.6269 17.4183 18.1259 17.1451C18.6285 16.8719 19.1949 16.7354 19.825 16.7354C20.4514 16.7354 21.0087 16.861 21.4967 17.1123C21.9884 17.36 22.3891 17.706 22.6987 18.1504C23.0082 18.5947 23.2086 19.1064 23.2996 19.6855H21.9666C21.8427 19.1829 21.6024 18.7659 21.2454 18.4344C20.8885 18.103 20.415 17.9373 19.825 17.9373C18.9581 17.9373 18.2752 18.3143 17.7762 19.0682C17.2809 19.8221 17.0314 20.8802 17.0278 22.2424H17.1152C17.3191 21.9328 17.5613 21.6687 17.8418 21.4502C18.1259 21.228 18.4391 21.0568 18.7815 20.9366C19.1238 20.8164 19.4862 20.7563 19.8687 20.7563C20.5097 20.7563 21.0961 20.9166 21.6279 21.2371C22.1596 21.554 22.5858 21.9929 22.9063 22.5538C23.2268 23.111 23.387 23.7502 23.387 24.4714C23.387 25.1634 23.2322 25.7971 22.9227 26.3726C22.6131 26.9444 22.1778 27.3997 21.6169 27.7384C21.0597 28.0735 20.4041 28.2374 19.6501 28.2301ZM19.6501 27.0282C20.1091 27.0282 20.5206 26.9135 20.8848 26.684C21.2527 26.4546 21.5423 26.1468 21.7535 25.7607C21.9684 25.3746 22.0758 24.9449 22.0758 24.4714C22.0758 24.0088 21.972 23.5881 21.7644 23.2094C21.5605 22.8269 21.2782 22.5228 20.9176 22.297C20.5607 22.0712 20.1528 21.9583 19.6939 21.9583C19.3478 21.9583 19.0255 22.0275 18.7268 22.1659C18.4282 22.3006 18.166 22.4864 17.9401 22.7231C17.718 22.9599 17.5431 23.2312 17.4157 23.5372C17.2882 23.8395 17.2244 24.1582 17.2244 24.4932C17.2244 24.9376 17.3282 25.3528 17.5359 25.7389C17.7471 26.1249 18.0348 26.4363 18.3991 26.6731C18.7669 26.9098 19.1839 27.0282 19.6501 27.0282ZM29.1849 28.2301C28.3618 28.2301 27.6607 28.0061 27.0816 27.5581C26.5025 27.1065 26.0599 26.4527 25.754 25.5968C25.4481 24.7373 25.2951 23.6992 25.2951 22.4827C25.2951 21.2735 25.4481 20.241 25.754 19.3851C26.0636 18.5255 26.5079 17.8699 27.087 17.4183C27.6698 16.963 28.3691 16.7354 29.1849 16.7354C30.0008 16.7354 30.6983 16.963 31.2774 17.4183C31.8601 17.8699 32.3045 18.5255 32.6104 19.3851C32.92 20.241 33.0748 21.2735 33.0748 22.4827C33.0748 23.6992 32.9218 24.7373 32.6159 25.5968C32.3099 26.4527 31.8674 27.1065 31.2883 27.5581C30.7092 28.0061 30.0081 28.2301 29.1849 28.2301ZM29.1849 27.0282C30.0008 27.0282 30.6345 26.6348 31.0862 25.8481C31.5378 25.0614 31.7636 23.9396 31.7636 22.4827C31.7636 21.5139 31.6598 20.689 31.4522 20.0079C31.2482 19.3268 30.9532 18.8078 30.5672 18.4508C30.1847 18.0939 29.724 17.9154 29.1849 17.9154C28.3764 17.9154 27.7445 18.3143 27.2892 19.1119C26.8339 19.9059 26.6063 21.0295 26.6063 22.4827C26.6063 23.4516 26.7083 24.2747 26.9122 24.9521C27.1162 25.6296 27.4094 26.145 27.7918 26.4983C28.1779 26.8516 28.6423 27.0282 29.1849 27.0282Z" fill="#062E58"/>
<path d="M22.9007 32.7207L22.4953 32.8354C22.4698 32.7679 22.4322 32.7022 22.3825 32.6385C22.334 32.5735 22.2677 32.5199 22.1836 32.4779C22.0995 32.4358 21.9918 32.4148 21.8605 32.4148C21.6807 32.4148 21.5309 32.4562 21.4111 32.5391C21.2926 32.6206 21.2333 32.7245 21.2333 32.8507C21.2333 32.9629 21.2741 33.0515 21.3557 33.1165C21.4372 33.1815 21.5647 33.2357 21.7381 33.2791L22.1741 33.3861C22.4367 33.4499 22.6323 33.5474 22.7611 33.6787C22.8898 33.8087 22.9542 33.9764 22.9542 34.1816C22.9542 34.3499 22.9058 34.5003 22.8089 34.6329C22.7133 34.7654 22.5794 34.87 22.4073 34.9465C22.2352 35.0229 22.0351 35.0612 21.8069 35.0612C21.5074 35.0612 21.2594 34.9962 21.0631 34.8661C20.8668 34.7361 20.7425 34.5462 20.6902 34.2963L21.1185 34.1892C21.1593 34.3473 21.2365 34.4659 21.3499 34.5449C21.4646 34.6239 21.6144 34.6635 21.7993 34.6635C22.0096 34.6635 22.1766 34.6188 22.3003 34.5296C22.4252 34.4391 22.4876 34.3307 22.4876 34.2045C22.4876 34.1026 22.452 34.0172 22.3806 33.9483C22.3092 33.8782 22.1995 33.8259 22.0517 33.7915L21.5622 33.6768C21.2932 33.6131 21.0956 33.5143 20.9694 33.3804C20.8445 33.2453 20.782 33.0764 20.782 32.8737C20.782 32.708 20.8285 32.5614 20.9216 32.4339C21.0159 32.3064 21.144 32.2063 21.3059 32.1337C21.4691 32.061 21.6539 32.0247 21.8605 32.0247C22.1511 32.0247 22.3793 32.0884 22.545 32.2159C22.712 32.3434 22.8306 32.5117 22.9007 32.7207ZM24.8649 35.0612C24.5819 35.0612 24.3378 34.9987 24.1326 34.8738C23.9286 34.7476 23.7712 34.5717 23.6603 34.346C23.5506 34.1191 23.4958 33.8553 23.4958 33.5544C23.4958 33.2536 23.5506 32.9884 23.6603 32.759C23.7712 32.5282 23.9254 32.3485 24.123 32.2197C24.3219 32.0897 24.5539 32.0247 24.819 32.0247C24.972 32.0247 25.1231 32.0502 25.2722 32.1012C25.4214 32.1522 25.5571 32.235 25.6795 32.3498C25.8019 32.4632 25.8994 32.6136 25.9721 32.801C26.0447 32.9884 26.0811 33.2192 26.0811 33.4932V33.6844H23.8171V33.2944H25.6221C25.6221 33.1286 25.589 32.9808 25.5227 32.8507C25.4577 32.7207 25.3646 32.6181 25.2435 32.5429C25.1237 32.4677 24.9822 32.4301 24.819 32.4301C24.6393 32.4301 24.4838 32.4747 24.3525 32.5639C24.2224 32.6519 24.1224 32.7666 24.0523 32.9081C23.9822 33.0496 23.9471 33.2013 23.9471 33.3632V33.6233C23.9471 33.8451 23.9853 34.0331 24.0618 34.1873C24.1396 34.3403 24.2473 34.4569 24.385 34.5373C24.5227 34.6163 24.6826 34.6558 24.8649 34.6558C24.9835 34.6558 25.0906 34.6392 25.1862 34.6061C25.2831 34.5717 25.3665 34.5207 25.4367 34.4531C25.5068 34.3843 25.5609 34.2989 25.5992 34.1969L26.0352 34.3193C25.9893 34.4671 25.9121 34.5972 25.8038 34.7094C25.6954 34.8203 25.5616 34.9069 25.4022 34.9694C25.2429 35.0306 25.0638 35.0612 24.8649 35.0612ZM27.9607 35.0612C27.6853 35.0612 27.4482 34.9962 27.2494 34.8661C27.0505 34.7361 26.8975 34.557 26.7905 34.3288C26.6834 34.1007 26.6298 33.84 26.6298 33.5468C26.6298 33.2485 26.6847 32.9852 26.7943 32.757C26.9052 32.5276 27.0594 32.3485 27.257 32.2197C27.4559 32.0897 27.6879 32.0247 27.953 32.0247C28.1596 32.0247 28.3457 32.0629 28.5114 32.1394C28.6771 32.2159 28.8129 32.323 28.9187 32.4607C29.0245 32.5983 29.0901 32.759 29.1156 32.9425H28.6644C28.63 32.8087 28.5535 32.6901 28.4349 32.5869C28.3176 32.4823 28.1596 32.4301 27.9607 32.4301C27.7848 32.4301 27.6305 32.476 27.498 32.5677C27.3667 32.6583 27.264 32.7864 27.1901 32.9521C27.1174 33.1165 27.0811 33.3097 27.0811 33.5315C27.0811 33.7584 27.1168 33.956 27.1882 34.1242C27.2609 34.2925 27.3628 34.4232 27.4941 34.5162C27.6267 34.6093 27.7822 34.6558 27.9607 34.6558C28.078 34.6558 28.1844 34.6354 28.28 34.5946C28.3756 34.5538 28.4566 34.4952 28.5229 34.4187C28.5892 34.3422 28.6363 34.2504 28.6644 34.1434H29.1156C29.0901 34.3167 29.027 34.4729 28.9263 34.6118C28.8269 34.7495 28.695 34.8591 28.5305 34.9407C28.3673 35.021 28.1774 35.0612 27.9607 35.0612Z" fill="#062E58"/>
<defs>
<radialGradient id="paint0_radial_108_6746" cx="0" cy="0" r="1" gradientUnits="userSpaceOnUse" gradientTransform="translate(6.875 -21.25) rotate(42.7688) scale(68.1107)">
<stop stop-color="white"/>
<stop offset="1" stop-color="#1283FB"/>
</radialGradient>
</defs>
</svg>
