<svg width="66" height="60" viewBox="0 0 66 60" fill="none" xmlns="http://www.w3.org/2000/svg">
<path d="M65.057 49.2267L39.2918 3.66616C38.6479 2.54995 37.7288 1.62444 36.6254 0.981369C35.522 0.3383 34.2728 0 33.0015 0C31.7301 0 30.4809 0.3383 29.3775 0.981369C28.2742 1.62444 27.355 2.54995 26.7112 3.66616L0.94597 49.2267C0.326473 50.3064 0 51.5343 0 52.7847C0 54.0351 0.326473 55.263 0.94597 56.3426C1.58157 57.4656 2.49916 58.3962 3.60458 59.0388C4.70999 59.6815 5.96343 60.0131 7.23627 59.9996H58.7667C60.0385 60.012 61.2907 59.6799 62.395 59.0373C63.4993 58.3947 64.416 57.4647 65.0511 56.3426C65.6715 55.2635 65.999 54.0359 66 52.7855C66.001 51.5351 65.6756 50.3069 65.057 49.2267ZM60.9705 53.9397C60.7459 54.3298 60.4234 54.6521 60.0361 54.8735C59.6489 55.0949 59.2107 55.2075 58.7667 55.1997H7.23627C6.7922 55.2075 6.35407 55.0949 5.96681 54.8735C5.57954 54.6521 5.25707 54.3298 5.03246 53.9397C4.829 53.5889 4.72168 53.189 4.72168 52.7817C4.72168 52.3743 4.829 51.9744 5.03246 51.6237L30.7977 6.06314C31.0268 5.67486 31.3507 5.35357 31.7379 5.13051C32.1252 4.90746 32.5625 4.79023 33.0074 4.79023C33.4522 4.79023 33.8896 4.90746 34.2768 5.13051C34.664 5.35357 34.9879 5.67486 35.2171 6.06314L60.9823 51.6237C61.1839 51.9755 61.2892 52.376 61.2872 52.7833C61.2851 53.1907 61.1757 53.59 60.9705 53.9397ZM30.6444 35.9998V24C30.6444 23.3634 30.8928 22.753 31.3348 22.3029C31.7768 21.8528 32.3763 21.6 33.0015 21.6C33.6266 21.6 34.2261 21.8528 34.6681 22.3029C35.1102 22.753 35.3585 23.3634 35.3585 24V35.9998C35.3585 36.6364 35.1102 37.2468 34.6681 37.6969C34.2261 38.147 33.6266 38.3998 33.0015 38.3998C32.3763 38.3998 31.7768 38.147 31.3348 37.6969C30.8928 37.2468 30.6444 36.6364 30.6444 35.9998ZM36.537 46.7997C36.537 47.5117 36.3296 48.2078 35.9412 48.7998C35.5527 49.3918 35.0005 49.8532 34.3545 50.1257C33.7084 50.3981 32.9975 50.4694 32.3117 50.3305C31.6259 50.1916 30.9959 49.8488 30.5015 49.3453C30.007 48.8418 29.6703 48.2004 29.5339 47.5021C29.3975 46.8037 29.4675 46.0799 29.7351 45.4221C30.0027 44.7643 30.4558 44.202 31.0372 43.8065C31.6186 43.4109 32.3022 43.1998 33.0015 43.1998C33.9392 43.1998 34.8384 43.5791 35.5015 44.2542C36.1645 44.9293 36.537 45.845 36.537 46.7997Z" fill="#FF0000"/>
</svg>
